<?xml version="1.0" encoding="UTF-8"?>
<svg width="265px" height="107px" viewBox="0 0 265 107" version="1.1" xmlns="http://www.w3.org/2000/svg" xmlns:xlink="http://www.w3.org/1999/xlink">
    <!-- Generator: Sketch 42 (36781) - http://www.bohemiancoding.com/sketch -->
    <title>Graphic</title>
    <desc>Created with Sketch.</desc>
    <defs></defs>
    <g id="Page-1" stroke="none" stroke-width="1" fill="none" fill-rule="evenodd">
        <g id="Desktop" transform="translate(-832.000000, -769.000000)" fill-rule="nonzero">
            <g id="Content" transform="translate(65.000000, 634.000000)">
                <g id="Step-3" transform="translate(735.000000, 131.000000)">
                    <g id="Graphic" transform="translate(32.000000, 0.000000)">
                        <g id="emoji-sunglasses" transform="translate(96.000000, 35.000000)">
                            <g id="Group">
                                <path d="M28,0 C43.4933333,0 56,12.5066667 56,28 C56,43.4933333 43.4933333,56 28,56 C12.5066667,56 0,43.4933333 0,28 C0,12.5066667 12.5066667,0 28,0" id="Shape" fill="#FFDD67"></path>
                                <path d="M31.5466667,17.2666667 C29.4933333,18.2933333 26.4133333,18.2933333 24.36,17.2666667 C22.2133333,16.1466667 19.5066667,15.4 16.24,15.12 C13.0666667,14.84 6.44,14.84 3.17333333,16.0533333 C2.8,16.1466667 2.42666667,16.3333333 2.05333333,16.52 C1.96,16.6133333 1.86666667,16.7066667 1.86666667,17.08 L1.86666667,17.5466667 C1.86666667,18.48 1.77333333,18.1066667 2.42666667,18.48 C3.73333333,19.2266667 4.48,21.1866667 4.85333333,23.8933333 C5.41333333,27.8133333 7.37333333,30.3333333 10.4533333,31.4533333 C13.3466667,32.5733333 16.6133333,32.48 19.5066667,31.36 C21.0933333,30.7066667 22.4933333,29.7733333 23.6133333,28.0933333 C25.5733333,25.2933333 24.92,23.52 25.9466667,21.0933333 C26.7866667,18.9466667 29.2133333,18.9466667 30.1466667,21.0933333 C31.1733333,23.52 30.52,25.2933333 32.48,28.0933333 C33.6,29.68 35,30.7066667 36.5866667,31.36 C39.48,32.48 42.7466667,32.5733333 45.64,31.4533333 C48.8133333,30.24 50.68,27.8133333 51.24,23.8933333 C51.6133333,21.1866667 52.36,19.2266667 53.6666667,18.48 C54.32,18.1066667 54.2266667,18.48 54.2266667,17.5466667 L54.2266667,17.08 C54.2266667,16.7066667 54.2266667,16.6133333 53.9466667,16.52 C53.5733333,16.3333333 53.2,16.1466667 52.8266667,16.0533333 C49.4666667,14.84 42.84,14.84 39.76,15.12 C36.4933333,15.4 33.7866667,16.1466667 31.5466667,17.2666667" id="Shape" fill="#494949"></path>
                                <path d="M39.76,37.6133333 C32.2,42.9333333 23.8,42.84 16.24,37.6133333 C15.3066667,36.96 14.56,38.08 15.12,39.1066667 C17.4533333,42.84 22.0266667,46.2933333 28,46.2933333 C33.9733333,46.2933333 38.5466667,42.9333333 40.88,39.1066667 C41.44,38.08 40.6933333,36.96 39.76,37.6133333" id="Shape" fill="#664E27"></path>
                            </g>
                        </g>
                        <g id="Group" transform="translate(192.000000, 35.000000)">
                            <g transform="translate(14.000000, 14.688525)" id="Shape" fill="#6ADBC6">
                                <path d="M14,11.7508197 C14,11.7508197 12.4133333,1.92786885 12.4133333,1.19344262 C12.4133333,0.459016393 13.16,0 14,0 C14.84,0 15.5866667,0.550819672 15.5866667,1.2852459 C15.5866667,2.01967213 14,11.7508197 14,11.7508197"></path>
                                <path d="M14,14.0459016 C14,14.0459016 15.5866667,23.8688525 15.5866667,24.6032787 C15.5866667,25.2459016 14.84,25.8885246 14,25.8885246 C13.16,25.8885246 12.4133333,25.3377049 12.4133333,24.6032787 C12.4133333,23.8688525 14,14.0459016 14,14.0459016"></path>
                                <path d="M12.7866667,12.852459 C12.7866667,12.852459 2.8,14.4131148 2.05333333,14.4131148 C1.4,14.4131148 0.746666667,13.6786885 0.746666667,12.852459 C0.746666667,12.0262295 1.30666667,11.2918033 2.05333333,11.2918033 C2.8,11.2918033 12.7866667,12.852459 12.7866667,12.852459"></path>
                                <path d="M15.2133333,12.852459 C15.2133333,12.852459 25.2,11.2918033 25.9466667,11.2918033 C26.6,11.2918033 27.2533333,12.0262295 27.2533333,12.852459 C27.2533333,13.6786885 26.6933333,14.4131148 25.9466667,14.4131148 C25.2,14.4131148 15.2133333,12.852459 15.2133333,12.852459"></path>
                                <path d="M13.16,12.0262295 C13.16,12.0262295 4.94666667,6.15081967 4.48,5.69180328 C4.01333333,5.23278689 4.10666667,4.3147541 4.76,3.67213115 C5.41333333,3.0295082 6.25333333,2.93770492 6.81333333,3.39672131 C7.18666667,4.03934426 13.16,12.0262295 13.16,12.0262295"></path>
                                <path d="M14.84,13.6786885 C14.84,13.6786885 23.0533333,19.5540984 23.52,20.0131148 C23.9866667,20.4721311 23.8933333,21.3901639 23.24,22.0327869 C22.5866667,22.6754098 21.7466667,22.7672131 21.1866667,22.3081967 C20.8133333,21.757377 14.84,13.6786885 14.84,13.6786885"></path>
                                <path d="M13.16,13.6786885 C13.16,13.6786885 7.18666667,21.757377 6.72,22.2163934 C6.25333333,22.6754098 5.32,22.5836066 4.66666667,21.9409836 C4.01333333,21.2983607 3.92,20.4721311 4.38666667,19.9213115 C4.94666667,19.5540984 13.16,13.6786885 13.16,13.6786885"></path>
                                <path d="M14.84,12.0262295 C14.84,12.0262295 20.8133333,3.94754098 21.28,3.48852459 C21.7466667,3.0295082 22.68,3.12131148 23.3333333,3.76393443 C23.9866667,4.40655738 24.08,5.23278689 23.6133333,5.78360656 C23.0533333,6.24262295 14.84,12.0262295 14.84,12.0262295"></path>
                            </g>
                            <g transform="translate(5.600000, 5.508197)" id="Shape" fill="#FFCE31">
                                <path d="M21.6533333,20.104918 C21.6533333,20.104918 13.44,4.22295082 12.9733333,3.12131148 C12.5066667,2.01967213 12.7866667,0.826229508 13.6266667,0.459016393 C14.4666667,0.0918032787 15.4933333,0.826229508 15.96,1.92786885 C16.4266667,3.0295082 21.6533333,20.104918 21.6533333,20.104918"></path>
                                <path d="M23.1466667,23.9606557 C23.1466667,23.9606557 31.36,39.842623 31.8266667,40.9442623 C32.2933333,42.0459016 32.0133333,43.2393443 31.1733333,43.6065574 C30.3333333,43.9737705 29.3066667,43.2393443 28.84,42.1377049 C28.3733333,41.0360656 23.1466667,23.9606557 23.1466667,23.9606557"></path>
                                <path d="M20.44,22.8590164 C20.44,22.8590164 4.29333333,30.9377049 3.17333333,31.3967213 C2.05333333,31.8557377 0.84,31.5803279 0.466666667,30.7540984 C0.0933333333,29.9278689 0.84,28.9180328 1.96,28.4590164 C3.17333333,28 20.44,22.8590164 20.44,22.8590164"></path>
                                <path d="M24.36,21.2983607 C24.36,21.2983607 40.5066667,13.2196721 41.6266667,12.7606557 C42.7466667,12.3016393 43.96,12.5770492 44.3333333,13.4032787 C44.7066667,14.2295082 43.96,15.2393443 42.84,15.6983607 C41.6266667,16.0655738 24.36,21.2983607 24.36,21.2983607"></path>
                                <path d="M20.44,21.2065574 C20.44,21.2065574 3.26666667,15.6983607 2.05333333,15.2393443 C0.84,14.7803279 0.28,13.7704918 0.653333333,12.9442623 C1.02666667,12.1180328 2.24,11.9344262 3.36,12.3934426 C4.48,12.852459 20.44,21.2065574 20.44,21.2065574"></path>
                                <path d="M24.36,22.8590164 C24.36,22.8590164 41.5333333,28.3672131 42.7466667,28.8262295 C43.8666667,29.2852459 44.52,30.3868852 44.24,31.1213115 C43.8666667,31.947541 42.6533333,32.1311475 41.5333333,31.6721311 C40.32,31.2131148 24.36,22.8590164 24.36,22.8590164"></path>
                                <path d="M21.56,23.9606557 C21.56,23.9606557 15.96,40.852459 15.4933333,42.0459016 C15.0266667,43.147541 13.9066667,43.7901639 13.16,43.5147541 C12.32,43.147541 12.1333333,41.9540984 12.6,40.852459 C13.0666667,39.6590164 21.56,23.9606557 21.56,23.9606557"></path>
                                <path d="M23.24,20.1967213 C23.24,20.1967213 28.84,3.30491803 29.3066667,2.11147541 C29.7733333,0.918032787 30.8,0.275409836 31.64,0.642622951 C32.48,1.00983607 32.6666667,2.20327869 32.2,3.30491803 C31.7333333,4.49836066 23.24,20.1967213 23.24,20.1967213"></path>
                            </g>
                            <g fill="#42ADE2">
                                <path d="M28,41.4032787 C28,41.4032787 29.5866667,52.8786885 29.5866667,53.704918 C29.5866667,54.5311475 28.84,55.1737705 28,55.1737705 C27.16,55.1737705 26.4133333,54.5311475 26.4133333,53.704918 C26.4133333,52.8786885 28,41.4032787 28,41.4032787" id="Shape"></path>
                                <path d="M28,12.852459 C28,12.852459 26.4133333,2.11147541 26.4133333,1.37704918 C26.4133333,0.642622951 27.0666667,0 28,0 C28.9333333,0 29.5866667,0.642622951 29.5866667,1.37704918 C29.5866667,2.11147541 28,12.852459 28,12.852459 Z" id="Shape"></path>
                                <path d="M37.9866667,37.3639344 C37.9866667,37.3639344 47.32,44.3409836 47.9733333,44.8918033 C48.5333333,45.442623 48.5333333,46.452459 47.88,47.0032787 C47.2266667,47.5540984 46.2933333,47.6459016 45.7333333,47.095082 C45.08,46.5442623 37.9866667,37.3639344 37.9866667,37.3639344" id="Shape"></path>
                                <path d="M17.4533333,17.1672131 C17.4533333,17.1672131 8.58666667,10.7409836 8.12,10.1901639 C7.56,9.63934426 7.65333333,8.72131148 8.30666667,8.07868852 C8.96,7.43606557 9.89333333,7.43606557 10.4533333,7.89508197 C10.8266667,8.44590164 17.4533333,17.1672131 17.4533333,17.1672131" id="Shape"></path>
                                <path d="M37.9866667,17.7180328 C37.9866667,17.7180328 45.08,8.53770492 45.64,7.89508197 C46.2,7.3442623 47.2266667,7.3442623 47.7866667,7.98688525 C48.44,8.6295082 48.44,9.54754098 47.88,10.0983607 C47.32,10.7409836 37.9866667,17.7180328 37.9866667,17.7180328" id="Shape"></path>
                                <path d="M17.4533333,37.9147541 C17.4533333,37.9147541 10.92,46.6360656 10.36,47.095082 C9.8,47.6459016 8.86666667,47.5540984 8.21333333,46.9114754 C7.56,46.2688525 7.46666667,45.442623 8.02666667,44.9836066 C8.58666667,44.4327869 17.4533333,37.9147541 17.4533333,37.9147541" id="Shape"></path>
                                <path d="M42.0933333,27.5409836 C42.0933333,27.5409836 53.76,25.9803279 54.6,25.9803279 C55.44,25.9803279 56,26.6229508 56,27.5409836 C56,28.3672131 55.3466667,29.1016393 54.5066667,29.1016393 C53.76,29.1016393 42.0933333,27.5409836 42.0933333,27.5409836" id="Shape"></path>
                                <path d="M13.0666667,27.5409836 C13.0666667,27.5409836 2.14666667,29.1016393 1.4,29.1016393 C0.653333333,29.1016393 0,28.4590164 0,27.5409836 C0,26.6229508 0.653333333,25.9803279 1.4,25.9803279 C2.14666667,25.9803279 13.0666667,27.5409836 13.0666667,27.5409836 Z" id="Shape"></path>
                                <ellipse id="Oval" cx="17.4533333" cy="2.84590164" rx="1.68" ry="1.65245902"></ellipse>
                                <ellipse id="Oval" cx="38.7333333" cy="2.84590164" rx="1.68" ry="1.65245902"></ellipse>
                                <ellipse id="Oval" cx="16.9866667" cy="52.3278689" rx="1.68" ry="1.65245902"></ellipse>
                                <ellipse id="Oval" cx="38.2666667" cy="52.3278689" rx="1.68" ry="1.65245902"></ellipse>
                                <ellipse id="Oval" cx="2.70666667" cy="37.8229508" rx="1.68" ry="1.65245902"></ellipse>
                                <ellipse id="Oval" cx="2.70666667" cy="16.8918033" rx="1.68" ry="1.65245902"></ellipse>
                                <ellipse id="Oval" cx="53.0133333" cy="38.2819672" rx="1.68" ry="1.65245902"></ellipse>
                                <ellipse id="Oval" cx="53.0133333" cy="17.3508197" rx="1.68" ry="1.65245902"></ellipse>
                            </g>
                        </g>
                        <g id="fireworks" opacity="0.199999988" transform="translate(190.211697, 17.775635) rotate(-30.000000) translate(-190.211697, -17.775635) translate(177.211697, 4.775635)">
                            <g id="Group" transform="translate(0.000000, 0.000000)">
                                <g transform="translate(6.356901, 6.669536)" id="Shape" fill="#6ADBC6">
                                    <path d="M6.35690123,5.33562857 C6.35690123,5.33562857 5.63645242,0.875376562 5.63645242,0.541899777 C5.63645242,0.208422991 5.97548715,1.02584607e-13 6.35690123,1.02584607e-13 C6.7383153,1.02584607e-13 7.07735003,0.250107589 7.07735003,0.583584375 C7.07735003,0.917061161 6.35690123,5.33562857 6.35690123,5.33562857"></path>
                                    <path d="M6.35690123,6.37774353 C6.35690123,6.37774353 7.07735003,10.8379955 7.07735003,11.1714723 C7.07735003,11.4632645 6.7383153,11.7550567 6.35690123,11.7550567 C5.97548715,11.7550567 5.63645242,11.5049491 5.63645242,11.1714723 C5.63645242,10.8379955 6.35690123,6.37774353 6.35690123,6.37774353"></path>
                                    <path d="M5.80596979,5.83584375 C5.80596979,5.83584375 1.27138025,6.54448192 0.932345513,6.54448192 C0.635690123,6.54448192 0.339034732,6.21100513 0.339034732,5.83584375 C0.339034732,5.46068237 0.593310781,5.12720558 0.932345513,5.12720558 C1.27138025,5.12720558 5.80596979,5.83584375 5.80596979,5.83584375"></path>
                                    <path d="M6.90783267,5.83584375 C6.90783267,5.83584375 11.4424222,5.12720558 11.7814569,5.12720558 C12.0781123,5.12720558 12.3747677,5.46068237 12.3747677,5.83584375 C12.3747677,6.21100513 12.1204917,6.54448192 11.7814569,6.54448192 C11.4424222,6.54448192 6.90783267,5.83584375 6.90783267,5.83584375"></path>
                                    <path d="M5.97548715,5.46068237 C5.97548715,5.46068237 2.2461051,2.79286808 2.03420839,2.58444509 C1.82231169,2.3760221 1.86469103,1.95917612 2.16134642,1.66738393 C2.45800181,1.37559174 2.83941588,1.33390714 3.09369193,1.54233013 C3.2632093,1.83412232 5.97548715,5.46068237 5.97548715,5.46068237"></path>
                                    <path d="M6.7383153,6.21100513 C6.7383153,6.21100513 10.4676974,8.87881942 10.6795941,9.08724241 C10.8914908,9.2956654 10.8491114,9.71251138 10.552456,10.0043036 C10.2558006,10.2960958 9.87438657,10.3377804 9.62011052,10.1293574 C9.45059316,9.87924978 6.7383153,6.21100513 6.7383153,6.21100513"></path>
                                    <path d="M5.97548715,6.21100513 C5.97548715,6.21100513 3.2632093,9.87924978 3.05131259,10.0876728 C2.83941588,10.2960958 2.41562247,10.2544112 2.11896708,9.96261897 C1.82231169,9.67082678 1.77993234,9.2956654 1.99182905,9.04555781 C2.2461051,8.87881942 5.97548715,6.21100513 5.97548715,6.21100513"></path>
                                    <path d="M6.7383153,5.46068237 C6.7383153,5.46068237 9.45059316,1.79243772 9.66248987,1.58401473 C9.87438657,1.37559174 10.29818,1.41727634 10.5948354,1.70906853 C10.8914908,2.00086071 10.9338701,2.3760221 10.7219734,2.62612969 C10.4676974,2.83455268 6.7383153,5.46068237 6.7383153,5.46068237"></path>
                                </g>
                                <g transform="translate(2.542760, 2.501076)" id="Shape" fill="#FFCE31">
                                    <path d="M9.83200723,9.12892701 C9.83200723,9.12892701 6.10262518,1.91749152 5.89072847,1.41727634 C5.67883176,0.917061161 5.80596979,0.375161384 6.18738386,0.208422991 C6.56879793,0.0416845982 7.03497069,0.375161384 7.2468674,0.875376562 C7.45876411,1.37559174 9.83200723,9.12892701 9.83200723,9.12892701"></path>
                                    <path d="M10.5100767,10.8796801 C10.5100767,10.8796801 14.2394587,18.0911156 14.4513555,18.5913308 C14.6632522,19.091546 14.5361141,19.6334458 14.1547001,19.8001841 C13.773286,19.9669225 13.3071132,19.6334458 13.0952165,19.1332306 C12.8833198,18.6330154 10.5100767,10.8796801 10.5100767,10.8796801"></path>
                                    <path d="M9.28107579,10.379465 C9.28107579,10.379465 1.94944971,14.0477096 1.44089761,14.2561326 C0.932345513,14.4645556 0.381414074,14.3395018 0.211896708,13.9643404 C0.0423793415,13.589179 0.381414074,13.1306484 0.889966172,12.9222254 C1.44089761,12.7138025 9.28107579,10.379465 9.28107579,10.379465"></path>
                                    <path d="M11.0610081,9.67082678 C11.0610081,9.67082678 18.3926342,6.00258214 18.9011863,5.79415915 C19.4097384,5.58573616 19.9606699,5.71078995 20.1301872,6.08595134 C20.2997046,6.46111272 19.9606699,6.9196433 19.4521178,7.12806629 C18.9011863,7.29480469 11.0610081,9.67082678 11.0610081,9.67082678"></path>
                                    <path d="M9.28107579,9.62914219 C9.28107579,9.62914219 1.48327695,7.12806629 0.932345513,6.9196433 C0.381414074,6.71122031 0.127138025,6.25268973 0.296655391,5.87752835 C0.466172757,5.50236696 1.0171042,5.41899777 1.52565629,5.62742076 C2.03420839,5.83584375 9.28107579,9.62914219 9.28107579,9.62914219"></path>
                                    <path d="M11.0610081,10.379465 C11.0610081,10.379465 18.858807,12.8805408 19.4097384,13.0889638 C19.9182905,13.2973868 20.2149459,13.797602 20.0878079,14.1310788 C19.9182905,14.5062402 19.3673591,14.5896094 18.858807,14.3811864 C18.3078755,14.1727634 11.0610081,10.379465 11.0610081,10.379465"></path>
                                    <path d="M9.78962789,10.8796801 C9.78962789,10.8796801 7.2468674,18.5496462 7.03497069,19.091546 C6.82307398,19.5917612 6.31452189,19.8835533 5.97548715,19.7584996 C5.59407308,19.5917612 5.5093144,19.0498614 5.7212111,18.5496462 C5.93310781,18.0077464 9.78962789,10.8796801 9.78962789,10.8796801"></path>
                                    <path d="M10.552456,9.17061161 C10.552456,9.17061161 13.0952165,1.50064554 13.3071132,0.958745759 C13.5190099,0.416845982 13.9851827,0.125053795 14.3665968,0.291792187 C14.7480108,0.45853058 14.8327695,1.00043036 14.6208728,1.50064554 C14.4089761,2.04254531 10.552456,9.17061161 10.552456,9.17061161"></path>
                                </g>
                                <g fill="#42ADE2">
                                    <path d="M12.7138025,18.7997538 C12.7138025,18.7997538 13.4342513,24.0103286 13.4342513,24.38549 C13.4342513,24.7606513 13.0952165,25.0524435 12.7138025,25.0524435 C12.3323884,25.0524435 11.9933536,24.7606513 11.9933536,24.38549 C11.9933536,24.0103286 12.7138025,18.7997538 12.7138025,18.7997538" id="Shape"></path>
                                    <path d="M12.7138025,5.83584375 C12.7138025,5.83584375 11.9933536,0.958745759 11.9933536,0.625268973 C11.9933536,0.291792187 12.290009,2.84217094e-14 12.7138025,2.84217094e-14 C13.1375959,2.84217094e-14 13.4342513,0.291792187 13.4342513,0.625268973 C13.4342513,0.958745759 12.7138025,5.83584375 12.7138025,5.83584375 Z" id="Shape"></path>
                                    <path d="M17.248392,16.9656315 C17.248392,16.9656315 21.4863261,20.1336609 21.7829815,20.3837685 C22.0372576,20.6338761 22.0372576,21.0924067 21.7406022,21.3425143 C21.4439468,21.5926219 21.0201534,21.6343065 20.7658773,21.3841989 C20.469222,21.1340913 17.248392,16.9656315 17.248392,16.9656315" id="Shape"></path>
                                    <path d="M7.92493686,7.79501987 C7.92493686,7.79501987 3.89889942,4.87709799 3.68700271,4.6269904 C3.43272666,4.37688281 3.475106,3.96003683 3.77176139,3.66824464 C4.06841679,3.37645246 4.4922102,3.37645246 4.74648625,3.58487545 C4.91600362,3.83498304 7.92493686,7.79501987 7.92493686,7.79501987" id="Shape"></path>
                                    <path d="M17.248392,8.04512745 C17.248392,8.04512745 20.469222,3.87666763 20.723498,3.58487545 C20.977774,3.33476786 21.4439468,3.33476786 21.6982229,3.62656004 C21.9948782,3.91835223 21.9948782,4.33519821 21.7406022,4.5853058 C21.4863261,4.87709799 17.248392,8.04512745 17.248392,8.04512745" id="Shape"></path>
                                    <path d="M7.92493686,17.2157391 C7.92493686,17.2157391 4.95838296,21.1757759 4.70410691,21.3841989 C4.44983086,21.6343065 4.02603744,21.5926219 3.72938205,21.3008297 C3.43272666,21.0090375 3.39034732,20.6338761 3.64462337,20.4254531 C3.89889942,20.1753455 7.92493686,17.2157391 7.92493686,17.2157391" id="Shape"></path>
                                    <path d="M19.113083,12.5053795 C19.113083,12.5053795 24.4105007,11.7967413 24.7919148,11.7967413 C25.1733289,11.7967413 25.4276049,12.0885335 25.4276049,12.5053795 C25.4276049,12.8805408 25.1309495,13.2140176 24.7495354,13.2140176 C24.4105007,13.2140176 19.113083,12.5053795 19.113083,12.5053795" id="Shape"></path>
                                    <path d="M5.93310781,12.5053795 C5.93310781,12.5053795 0.974724855,13.2140176 0.635690123,13.2140176 C0.296655391,13.2140176 8.52651283e-14,12.9222254 8.52651283e-14,12.5053795 C8.52651283e-14,12.0885335 0.296655391,11.7967413 0.635690123,11.7967413 C0.974724855,11.7967413 5.93310781,12.5053795 5.93310781,12.5053795 Z" id="Shape"></path>
                                    <ellipse id="Oval" cx="7.92493686" cy="1.29222254" rx="0.762828147" ry="0.750322768"></ellipse>
                                    <ellipse id="Oval" cx="17.5874267" cy="1.29222254" rx="0.762828147" ry="0.750322768"></ellipse>
                                    <ellipse id="Oval" cx="7.71304016" cy="23.760221" rx="0.762828147" ry="0.750322768"></ellipse>
                                    <ellipse id="Oval" cx="17.37553" cy="23.760221" rx="0.762828147" ry="0.750322768"></ellipse>
                                    <ellipse id="Oval" cx="1.2290009" cy="17.1740545" rx="0.762828147" ry="0.750322768"></ellipse>
                                    <ellipse id="Oval" cx="1.2290009" cy="7.66996607" rx="0.762828147" ry="0.750322768"></ellipse>
                                    <ellipse id="Oval" cx="24.071466" cy="17.3824775" rx="0.762828147" ry="0.750322768"></ellipse>
                                    <ellipse id="Oval" cx="24.071466" cy="7.87838906" rx="0.762828147" ry="0.750322768"></ellipse>
                                </g>
                            </g>
                        </g>
                        <g id="fireworks" opacity="0.200000018" transform="translate(252.093256, 102.022704) rotate(-345.000000) translate(-252.093256, -102.022704) translate(243.093256, 93.022704)">
                            <g id="Group" transform="translate(-0.000000, -0.000000)">
                                <g transform="translate(4.387306, 4.603076)" id="Shape" fill="#6ADBC6">
                                    <path d="M4.38730643,3.68246048 C4.38730643,3.68246048 3.89007837,0.604153673 3.89007837,0.373999893 C3.89007837,0.143846113 4.12406805,-2.26263452e-13 4.38730643,-2.26263452e-13 C4.65054482,-2.26263452e-13 4.8845345,0.172615335 4.8845345,0.402769115 C4.8845345,0.632922895 4.38730643,3.68246048 4.38730643,3.68246048"></path>
                                    <path d="M4.38730643,4.40169104 C4.38730643,4.40169104 4.8845345,7.47999785 4.8845345,7.71015163 C4.8845345,7.91153619 4.65054482,8.11292075 4.38730643,8.11292075 C4.12406805,8.11292075 3.89007837,7.94030541 3.89007837,7.71015163 C3.89007837,7.47999785 4.38730643,4.40169104 4.38730643,4.40169104"></path>
                                    <path d="M4.00707321,4.02769115 C4.00707321,4.02769115 0.877461287,4.51676793 0.64347161,4.51676793 C0.438730643,4.51676793 0.233989676,4.28661415 0.233989676,4.02769115 C0.233989676,3.76876815 0.409481934,3.53861437 0.64347161,3.53861437 C0.877461287,3.53861437 4.00707321,4.02769115 4.00707321,4.02769115"></path>
                                    <path d="M4.76753966,4.02769115 C4.76753966,4.02769115 7.89715158,3.53861437 8.13114126,3.53861437 C8.33588222,3.53861437 8.54062319,3.76876815 8.54062319,4.02769115 C8.54062319,4.28661415 8.36513093,4.51676793 8.13114126,4.51676793 C7.89715158,4.51676793 4.76753966,4.02769115 4.76753966,4.02769115"></path>
                                    <path d="M4.12406805,3.76876815 C4.12406805,3.76876815 1.55018161,1.92753791 1.40393806,1.7836918 C1.25769451,1.63984568 1.28694322,1.35215346 1.49168419,1.1507689 C1.69642515,0.949384343 1.95966354,0.92061512 2.1351558,1.06446123 C2.25215064,1.26584579 4.12406805,3.76876815 4.12406805,3.76876815"></path>
                                    <path d="M4.65054482,4.28661415 C4.65054482,4.28661415 7.22443126,6.12784439 7.37067481,6.27169051 C7.51691836,6.41553662 7.48766965,6.70322885 7.28292868,6.9046134 C7.07818771,7.10599796 6.81494933,7.13476718 6.63945707,6.99092107 C6.52246223,6.81830574 4.65054482,4.28661415 4.65054482,4.28661415"></path>
                                    <path d="M4.12406805,4.28661415 C4.12406805,4.28661415 2.25215064,6.81830574 2.10590709,6.96215185 C1.95966354,7.10599796 1.66717644,7.07722874 1.46243548,6.87584418 C1.25769451,6.67445962 1.2284458,6.41553662 1.37468935,6.24292128 C1.55018161,6.12784439 4.12406805,4.28661415 4.12406805,4.28661415"></path>
                                    <path d="M4.65054482,3.76876815 C4.65054482,3.76876815 6.52246223,1.23707657 6.66870578,1.09323046 C6.81494933,0.949384343 7.10743642,0.978153565 7.31217739,1.17953812 C7.51691836,1.38092268 7.54616706,1.63984568 7.39992352,1.81246102 C7.22443126,1.95630713 4.65054482,3.76876815 4.65054482,3.76876815"></path>
                                </g>
                                <g transform="translate(1.754923, 1.726153)" id="Shape" fill="#FFCE31">
                                    <path d="M6.78570062,6.30045973 C6.78570062,6.30045973 4.21181418,1.32338424 4.06557063,0.978153565 C3.91932708,0.632922895 4.00707321,0.258923003 4.27031159,0.143846113 C4.53354998,0.0287692225 4.85528579,0.258923003 5.00152933,0.604153673 C5.14777288,0.949384343 6.78570062,6.30045973 6.78570062,6.30045973"></path>
                                    <path d="M7.25367997,7.50876708 C7.25367997,7.50876708 9.82756641,12.4858426 9.97380996,12.8310732 C10.1200535,13.1763039 10.0323074,13.5503038 9.76906899,13.6653807 C9.5058306,13.7804576 9.1840948,13.5503038 9.03785125,13.2050731 C8.8916077,12.8598425 7.25367997,7.50876708 7.25367997,7.50876708"></path>
                                    <path d="M6.40546739,7.16353641 C6.40546739,7.16353641 1.34544064,9.69522799 0.994456125,9.8390741 C0.64347161,9.98292021 0.263238386,9.89661254 0.146243548,9.63768954 C0.0292487096,9.37876654 0.263238386,9.06230509 0.614222901,8.91845898 C0.994456125,8.77461287 6.40546739,7.16353641 6.40546739,7.16353641"></path>
                                    <path d="M7.63391319,6.67445962 C7.63391319,6.67445962 12.6939399,4.14276804 13.0449245,3.99892193 C13.395909,3.85507582 13.7761422,3.94138348 13.893137,4.20030649 C14.0101319,4.45922949 13.7761422,4.77569094 13.4251577,4.91953705 C13.0449245,5.03461394 7.63391319,6.67445962 7.63391319,6.67445962"></path>
                                    <path d="M6.40546739,6.6456904 C6.40546739,6.6456904 1.02370483,4.91953705 0.64347161,4.77569094 C0.263238386,4.63184482 0.0877461287,4.31538338 0.204740967,4.05646037 C0.321735805,3.79753737 0.701969029,3.73999893 1.05295354,3.88384504 C1.40393806,4.02769115 6.40546739,6.6456904 6.40546739,6.6456904"></path>
                                    <path d="M7.63391319,7.16353641 C7.63391319,7.16353641 13.0156758,8.88968976 13.395909,9.03353587 C13.7468935,9.17738198 13.9516345,9.52261265 13.8638883,9.75276643 C13.7468935,10.0116894 13.3666603,10.0692279 13.0156758,9.92538177 C12.6354425,9.78153565 7.63391319,7.16353641 7.63391319,7.16353641"></path>
                                    <path d="M6.75645191,7.50876708 C6.75645191,7.50876708 5.00152933,12.802304 4.85528579,13.1763039 C4.70904224,13.5215346 4.35805772,13.7229191 4.12406805,13.6366115 C3.86082966,13.5215346 3.80233224,13.1475347 3.94857579,12.802304 C4.09481934,12.4283041 6.75645191,7.50876708 6.75645191,7.50876708"></path>
                                    <path d="M7.28292868,6.32922895 C7.28292868,6.32922895 9.03785125,1.03569201 9.1840948,0.661692118 C9.33033835,0.287692225 9.65207415,0.0863076675 9.91531254,0.201384558 C10.1785509,0.316461448 10.2370483,0.69046134 10.0908048,1.03569201 C9.94456125,1.4096919 7.28292868,6.32922895 7.28292868,6.32922895"></path>
                                </g>
                                <g transform="translate(-0.000000, 0.000000)" fill="#42ADE2">
                                    <path d="M8.77461287,12.9749194 C8.77461287,12.9749194 9.27184093,16.5710722 9.27184093,16.8299952 C9.27184093,17.0889182 9.03785125,17.2903027 8.77461287,17.2903027 C8.51137448,17.2903027 8.2773848,17.0889182 8.2773848,16.8299952 C8.2773848,16.5710722 8.77461287,12.9749194 8.77461287,12.9749194" id="Shape"></path>
                                    <path d="M8.77461287,4.02769115 C8.77461287,4.02769115 8.2773848,0.661692118 8.2773848,0.431538338 C8.2773848,0.201384558 8.48212577,-1.20792265e-13 8.77461287,-1.20792265e-13 C9.06709996,-1.20792265e-13 9.27184093,0.201384558 9.27184093,0.431538338 C9.27184093,0.661692118 8.77461287,4.02769115 8.77461287,4.02769115 Z" id="Shape"></path>
                                    <path d="M11.9042248,11.7090736 C11.9042248,11.7090736 14.8290957,13.8955345 15.0338367,14.0681498 C15.209329,14.2407651 15.209329,14.5572266 15.004588,14.7298419 C14.799847,14.9024573 14.5073599,14.9312265 14.3318677,14.7586111 C14.1271267,14.5859958 11.9042248,11.7090736 11.9042248,11.7090736" id="Shape"></path>
                                    <path d="M5.46950869,5.37984461 C5.46950869,5.37984461 2.69088128,3.36599903 2.54463773,3.1933837 C2.36914547,3.02076836 2.39839418,2.73307614 2.60313515,2.53169158 C2.80787612,2.33030702 3.10036321,2.33030702 3.27585547,2.47415314 C3.39285031,2.64676847 5.46950869,5.37984461 5.46950869,5.37984461" id="Shape"></path>
                                    <path d="M11.9042248,5.55245994 C11.9042248,5.55245994 14.1271267,2.67553769 14.302619,2.47415314 C14.4781112,2.3015378 14.799847,2.3015378 14.9753393,2.50292236 C15.1800803,2.70430692 15.1800803,2.99199914 15.004588,3.16461448 C14.8290957,3.36599903 11.9042248,5.55245994 11.9042248,5.55245994" id="Shape"></path>
                                    <path d="M5.46950869,11.8816889 C5.46950869,11.8816889 3.42209902,14.614765 3.24660676,14.7586111 C3.0711145,14.9312265 2.77862741,14.9024573 2.57388644,14.7010727 C2.36914547,14.4996881 2.33989676,14.2407651 2.51538902,14.096919 C2.69088128,13.9243037 5.46950869,11.8816889 5.46950869,11.8816889" id="Shape"></path>
                                    <path d="M13.191168,8.63076675 C13.191168,8.63076675 16.8472567,8.14168997 17.1104951,8.14168997 C17.3737335,8.14168997 17.5492257,8.34307453 17.5492257,8.63076675 C17.5492257,8.88968976 17.3444848,9.11984354 17.0812464,9.11984354 C16.8472567,9.11984354 13.191168,8.63076675 13.191168,8.63076675" id="Shape"></path>
                                    <path d="M4.09481934,8.63076675 C4.09481934,8.63076675 0.67272032,9.11984354 0.438730643,9.11984354 C0.204740967,9.11984354 2.27373675e-13,8.91845898 2.27373675e-13,8.63076675 C2.27373675e-13,8.34307453 0.204740967,8.14168997 0.438730643,8.14168997 C0.67272032,8.14168997 4.09481934,8.63076675 4.09481934,8.63076675 Z" id="Shape"></path>
                                    <ellipse id="Oval" cx="5.46950869" cy="0.891845898" rx="0.526476772" ry="0.517846005"></ellipse>
                                    <ellipse id="Oval" cx="12.1382145" cy="0.891845898" rx="0.526476772" ry="0.517846005"></ellipse>
                                    <ellipse id="Oval" cx="5.32326514" cy="16.3984568" rx="0.526476772" ry="0.517846005"></ellipse>
                                    <ellipse id="Oval" cx="11.9919709" cy="16.3984568" rx="0.526476772" ry="0.517846005"></ellipse>
                                    <ellipse id="Oval" cx="0.848212577" cy="11.8529197" rx="0.526476772" ry="0.517846005"></ellipse>
                                    <ellipse id="Oval" cx="0.848212577" cy="5.29353694" rx="0.526476772" ry="0.517846005"></ellipse>
                                    <ellipse id="Oval" cx="16.613267" cy="11.9967658" rx="0.526476772" ry="0.517846005"></ellipse>
                                    <ellipse id="Oval" cx="16.613267" cy="5.43738305" rx="0.526476772" ry="0.517846005"></ellipse>
                                </g>
                            </g>
                        </g>
                        <path d="M228.540042,18.5403978 L227.155957,18.0323159 L227.93268,16.7767112 C228.253997,16.2504354 228.110873,15.5650419 227.605797,15.2113341 C227.10072,14.8576262 226.407697,14.9574604 226.022993,15.4393463 L225.111949,16.6073506 L224.154186,15.4919065 C223.758324,15.0008072 223.044053,14.9127379 222.540757,15.2929712 C222.03746,15.6732046 221.926989,16.3843552 222.291219,16.8993517 L223.114662,18.1257563 L221.748097,18.7097584 C221.161795,18.9358117 220.859412,19.5852119 221.063771,20.1794236 C221.268129,20.7736353 221.90598,21.0996744 222.5073,20.9172866 L223.926425,20.5143251 L224.043225,21.9159304 C224.08915,22.5265622 224.598876,22.9980589 225.21123,22.9963344 L225.21123,22.9963344 C225.838487,22.9968364 226.354144,22.5018059 226.379234,21.8750502 L226.431794,20.4033647 L227.862599,20.753766 C228.462837,20.8959079 229.070131,20.5468004 229.249362,19.9565751 C229.428592,19.3663499 229.117966,18.7385021 228.540042,18.5228777 L228.540042,18.5403978 Z" id="Shape" fill="#FFCE31"></path>
                        <circle id="Oval" fill="#6EC24D" cx="246" cy="13" r="2"></circle>
                        <path d="M257.949858,33.7978482 C257.649858,33.2728482 257.049858,32.9353482 256.337358,32.9353482 C255.362358,32.9353482 254.574858,33.6103482 254.574858,34.4353482 C254.574858,35.9353482 257.949858,38.9353482 257.949858,38.9353482 C257.949858,38.9353482 261.324858,35.9353482 261.324858,34.4353482 C261.324858,33.6103482 260.537358,32.9353482 259.562358,32.9353482 C258.849858,32.9353482 258.249858,33.2728482 257.949858,33.7978482 Z" id="Shape" fill="#E84D88" transform="translate(257.949858, 35.935348) rotate(19.000000) translate(-257.949858, -35.935348) "></path>
                        <circle id="Oval-Copy" fill="#6EC24D" cx="218" cy="105" r="2"></circle>
                        <path d="M194.197025,99.3649323 L193.146369,98.9792487 L193.735978,98.0261224 C193.979889,97.6266278 193.871244,97.1063474 193.487842,96.8378487 C193.10444,96.56935 192.578367,96.6451338 192.286339,97.0109322 L191.594768,97.8975612 L190.867733,97.0508305 C190.567235,96.6780383 190.025034,96.6111851 189.642983,96.8998193 C189.260932,97.1884534 189.177073,97.728286 189.453559,98.1192185 L190.078633,99.050179 L189.041277,99.4934935 C188.596217,99.66509 188.366679,100.158048 188.521807,100.609112 C188.676935,101.060177 189.161126,101.307673 189.617586,101.169222 L190.69484,100.863335 L190.783503,101.92729 C190.818364,102.390819 191.205296,102.748731 191.670132,102.747422 L191.670132,102.747422 C192.146281,102.747803 192.537715,102.372027 192.556761,101.896258 L192.596659,100.779106 L193.68278,101.045094 C194.138419,101.152994 194.599414,100.887987 194.735467,100.439949 C194.871521,99.9919104 194.635725,99.5153127 194.197025,99.3516329 L194.197025,99.3649323 Z" id="Shape-Copy" fill="#42ADE2" transform="translate(191.623653, 99.712426) rotate(-78.000000) translate(-191.623653, -99.712426) "></path>
                        <path d="M264.176098,59.8105777 L263.298533,59.4884334 L263.791006,58.6923296 C263.994734,58.3586496 263.903988,57.9240826 263.583749,57.6998176 C263.26351,57.4755526 262.824106,57.5388515 262.580188,57.8443865 L262.00255,58.5849482 L261.395289,57.8777118 C261.144297,57.5663351 260.691421,57.5104956 260.37231,57.7515789 C260.0532,57.9926621 259.983157,58.4435601 260.214093,58.7700886 L260.736189,59.5476783 L259.869732,59.9179592 C259.497993,60.061286 259.30627,60.4730318 259.435842,60.8497859 C259.565413,61.22654 259.969837,61.4332619 260.351097,61.3176207 L261.25088,61.062127 L261.324936,61.950801 C261.354054,62.3379661 261.67724,62.6369139 262.065497,62.6358205 L262.065497,62.6358205 C262.463204,62.6361388 262.790151,62.3222696 262.806059,61.9248813 L262.839384,60.9917736 L263.746572,61.2139421 C264.127147,61.3040658 264.512196,61.0827176 264.625835,60.7084911 C264.739475,60.3342645 264.542525,59.9361838 264.176098,59.7994693 L264.176098,59.8105777 Z" id="Shape-Copy-2" fill="#42ADE2" transform="translate(262.026675, 60.100823) rotate(-78.000000) translate(-262.026675, -60.100823) "></path>
                        <rect id="Rectangle-path" fill="#FFCE31" transform="translate(182.529479, 35.529450) rotate(-48.287476) translate(-182.529479, -35.529450) " x="180.029835" y="33.0294504" width="4.99928917" height="5"></rect>
                        <rect id="Rectangle-path-Copy" fill="#E84D88" transform="translate(262.117688, 82.117670) rotate(-48.287476) translate(-262.117688, -82.117670) " x="260.617901" y="80.6176703" width="2.9995735" height="3"></rect>
                        <g id="emoji-worried" transform="translate(0.000000, 35.000000)">
                            <g id="Group">
                                <path d="M0,28 C0,43.4933333 12.5066667,56 28,56 C43.4933333,56 56,43.4933333 56,28 C56,12.5066667 43.4933333,0 28,0 C12.5066667,0 0,12.5066667 0,28 Z" id="Shape" fill="#FFDD67"></path>
                                <path d="M43.4,13.3466667 C43.4,22.5866667 56,22.5866667 56,13.3466667 C56,6.62666667 49.7466667,0 49.7466667,0 C49.7466667,0 43.4,6.62666667 43.4,13.3466667 Z" id="Shape" fill="#65B1EF"></path>
                                <g transform="translate(12.133333, 27.066667)" id="Oval" fill="#664E27">
                                    <ellipse cx="26.6" cy="4.66666667" rx="4.66666667" ry="4.66666667"></ellipse>
                                    <ellipse cx="5.13333333" cy="4.66666667" rx="4.66666667" ry="4.66666667"></ellipse>
                                </g>
                                <g transform="translate(10.266667, 17.733333)" id="Shape" fill="#917524">
                                    <path d="M11.76,0.84 C8.77333333,3.36 4.76,4.48 0.84,3.73333333 C0.28,3.64 -0.186666667,5.6 0.466666667,5.78666667 C4.94666667,6.62666667 9.61333333,5.32 13.0666667,2.42666667 C13.5333333,1.96 12.1333333,0.466666667 11.76,0.84"></path>
                                    <path d="M34.6266667,3.64 C30.7066667,4.29333333 26.6933333,3.26666667 23.7066667,0.746666667 C23.3333333,0.373333333 21.84,1.86666667 22.4,2.33333333 C25.8533333,5.32 30.52,6.53333333 35,5.69333333 C35.6533333,5.50666667 35.1866667,3.54666667 34.6266667,3.64"></path>
                                </g>
                                <path d="M35.4666667,46.6666667 L20.5333333,46.6666667 C19.1333333,46.6666667 19.1333333,42.9333333 20.5333333,42.9333333 L35.4666667,42.9333333 C36.8666667,42.9333333 36.8666667,46.6666667 35.4666667,46.6666667" id="Shape" fill="#664E27"></path>
                            </g>
                        </g>
                        <path d="M74.6911116,57.1141498 C74.5355211,56.9619501 74.2737912,56.9619501 74.1182006,57.1141498 C74.0422145,57.1890606 74,57.2889417 74,57.3959572 C74,57.5017836 74.0422145,57.6028537 74.1182006,57.6789536 L78.3551631,62.9988109 L74.1194067,68.3174792 C74.0434206,68.39239 74,68.4934602 74,68.6016647 C74,68.7074911 74.0422145,68.8073722 74.1169945,68.882283 C74.1929806,68.9583829 74.2955015,69 74.4052592,69 C74.5138107,69 74.6151255,68.9583829 74.6911116,68.8834721 L79.2139266,63.2806183 C79.2899127,63.2057075 79.3333333,63.1046373 79.3333333,62.9976219 C79.3333333,62.8906064 79.2911188,62.7895363 79.2139266,62.7158145 L74.6911116,57.1141498 Z" id="Forward-icon" stroke="#6C727D" fill="#0092DF" opacity="0.300000012"></path>
                        <path d="M170.691112,57.1141498 C170.535521,56.9619501 170.273791,56.9619501 170.118201,57.1141498 C170.042214,57.1890606 170,57.2889417 170,57.3959572 C170,57.5017836 170.042214,57.6028537 170.118201,57.6789536 L174.355163,62.9988109 L170.119407,68.3174792 C170.043421,68.39239 170,68.4934602 170,68.6016647 C170,68.7074911 170.042214,68.8073722 170.116994,68.882283 C170.192981,68.9583829 170.295501,69 170.405259,69 C170.513811,69 170.615126,68.9583829 170.691112,68.8834721 L175.213927,63.2806183 C175.289913,63.2057075 175.333333,63.1046373 175.333333,62.9976219 C175.333333,62.8906064 175.291119,62.7895363 175.213927,62.7158145 L170.691112,57.1141498 Z" id="Forward-icon" stroke="#6C727D" fill="#0092DF" opacity="0.300000012"></path>
                    </g>
                </g>
            </g>
        </g>
    </g>
</svg>