<?xml version="1.0" encoding="utf-8"?>
<!-- Generator: Adobe Illustrator 21.0.1, SVG Export Plug-In . SVG Version: 6.00 Build 0)  -->
<svg version="1.1" id="Layer_1" xmlns="http://www.w3.org/2000/svg" xmlns:xlink="http://www.w3.org/1999/xlink" x="0px" y="0px"
	 viewBox="0 0 200 30" style="enable-background:new 0 0 200 30;" xml:space="preserve">
<style type="text/css">
	.st0{opacity:0.4;fill:#6C727D;fill-opacity:0.9;}
	.st1{opacity:0.4;fill:#6C727D;}
</style>
<title>Logo</title>
<desc>Created with Sketch.</desc>
<path id="Fill-1" class="st0" d="M48.6,16.1V6.9h2.2v9.3c0,2.8,1.6,5,4.7,5s4.7-2.1,4.7-5V6.9h2.2v9.3c0,4.2-2.5,7.1-6.9,7.1
	C51.1,23.2,48.6,20.3,48.6,16.1z"/>
<polygon id="Fill-3" class="st0" points="66.1,22.9 68.4,22.9 68.4,6.9 66.1,6.9 "/>
<path id="Fill-5" class="st0" d="M85.6,21.2c0,0-1.8,2-5.7,2c-5.1,0-8.5-3.7-8.5-8.3c0-4.7,3.4-8.4,8.5-8.4c3.9,0,5.7,2,5.7,2
	l-1.3,1.7c0,0-1.7-1.7-4.4-1.7c-3.7,0-6.3,2.8-6.3,6.3c0,3.5,2.6,6.3,6.3,6.3c2.7,0,4.4-1.7,4.4-1.7L85.6,21.2z"/>
<polygon id="Fill-6" class="st0" points="90.8,15.4 99.5,6.9 102.2,6.9 102.2,7.2 95.7,13.6 102.2,22.5 102.2,22.9 99.5,22.9 
	94.1,15.2 90.8,18.5 90.8,22.9 88.5,22.9 88.5,6.9 90.8,6.9 "/>
<path id="Fill-7" class="st0" d="M105.2,19.6c0,0,1.8,1.5,4.9,1.5c2.7,0,3.9-1,3.9-2.5c0-1.4-0.9-2-4.3-3c-3.9-1.1-5.7-2.3-5.7-4.7
	c0-2.7,2.3-4.4,6.1-4.4c4.1,0,5.8,1.5,5.8,1.5l-1.2,1.8c0,0-1.7-1.3-4.6-1.3c-2.2,0-3.7,0.8-3.7,2.3c0,1.2,1,1.8,4.3,2.7
	c4.2,1.1,5.7,2.6,5.7,5c0,2.6-1.9,4.7-6.3,4.7c-4.2,0-6.1-1.9-6.1-1.9L105.2,19.6z"/>
<path id="Fill-8" class="st0" d="M126.1,8.9h-4.5v7h4.5c2.6,0,4.3-1.1,4.3-3.5C130.4,10,128.7,8.9,126.1,8.9L126.1,8.9z M119.3,6.9
	h6.8c4.1,0,6.5,1.9,6.5,5.4c0,3.6-2.7,5.6-6.7,5.6h-4.5v5h-2.2V6.9z"/>
<path id="Fill-9" class="st0" d="M141.9,8.9h-4.5v6.8h4.7c2.4,0,4.1-1.1,4.1-3.4S144.5,8.9,141.9,8.9 M148.5,12.3
	c0,2.6-1.4,4.2-3.7,5v0.1l4.2,5.1v0.4h-2.5l-4.2-5.2h-5v5.2h-2.2v-16h6.8C146,6.9,148.5,8.8,148.5,12.3"/>
<path id="Fill-10" class="st0" d="M165.4,14.9c0-3.5-2.4-6.3-6.2-6.3c-3.7,0-6.1,2.8-6.1,6.3c0,3.5,2.4,6.2,6.1,6.2
	C163,21.1,165.4,18.4,165.4,14.9 M150.8,14.9c0-4.7,3.3-8.4,8.4-8.4c5.2,0,8.5,3.7,8.5,8.4c0,4.6-3.3,8.3-8.5,8.3
	C154.1,23.2,150.8,19.5,150.8,14.9"/>
<path id="Fill-11" class="st0" d="M170.3,16.1V6.9h2.2v9.3c0,2.8,1.6,5,4.7,5c3.1,0,4.7-2.1,4.7-5V6.9h2.2v9.3
	c0,4.2-2.5,7.1-6.9,7.1C172.9,23.2,170.3,20.3,170.3,16.1"/>
<polygon id="Fill-12" class="st0" points="186.6,6.9 200,6.9 200,8.9 194.4,8.9 194.4,22.9 192.2,22.9 192.2,8.9 186.6,8.9 "/>
<path id="Fill-13" class="st0" d="M37.4,21.1c-3.7,0-6.1-2.8-6.1-6.2c0-3.5,2.4-6.3,6.1-6.3c3.8,0,6.2,2.8,6.2,6.3
	c0,1.4-0.4,2.7-1.2,3.8l-2.2-1.9l-1.5,1.6l2.1,1.7C39.9,20.8,38.8,21.1,37.4,21.1 M45.9,14.9c0-4.7-3.3-8.4-8.5-8.4
	c-5.1,0-8.4,3.7-8.4,8.4c0,4.6,3.3,8.3,8.4,8.3c2.1,0,3.8-0.6,5.2-1.6l1.8,1.6l1.5-1.6l-1.7-1.5C45.3,18.7,45.9,16.9,45.9,14.9"/>
<path id="Fill-14" class="st1" d="M11.2,20C8.9,20,7,18.1,7,15.8s1.9-4.2,4.3-4.2s4.3,1.9,4.3,4.2S13.6,20,11.2,20 M14,29.8
	c-0.8-0.2-2.1-0.6-3.5-1.2l0,0l0,0c-0.3-0.1-2.9-1.3-5.4-3.4C2.6,23.1-0.2,19.6,0,14.7c0.1-2.1,0.8-4.2,2.1-6.2
	c1-1.6,2.4-3.2,4.1-4.6C8.9,1.6,11.5,0.3,12,0c0.8,1.7,2.4,2.9,4.1,4.3c3.1,2.4,6.6,5.2,6.3,11.6c-0.2,3-1.4,5.6-3.7,7.9
	c-0.7-0.1-2.6-0.3-4.6-1.1c3-1.1,5-4,5-7.2c0-4.2-3.5-7.7-7.8-7.7c-4.3,0-7.8,3.4-7.8,7.7c0,0.9,0.1,1.7,0.4,2.5l0,0
	c0,0,1.1,4.1,7.2,6.9c1.4,0.7,3,1.3,4.7,1.7C15,27.5,14.4,28.6,14,29.8"/>
</svg>
