<?xml version="1.0" encoding="UTF-8"?>
<svg width="1314px" height="574px" viewBox="0 0 1314 574" version="1.1" xmlns="http://www.w3.org/2000/svg" xmlns:xlink="http://www.w3.org/1999/xlink">
    <!-- Generator: Sketch 42 (36781) - http://www.bohemiancoding.com/sketch -->
    <title>Header</title>
    <desc>Created with Sketch.</desc>
    <defs>
        <path d="M17.5,35 C27.1649831,35 35,27.1649831 35,17.5 C35,7.83501688 27.1649831,0 17.5,0 C7.83501688,0 0,7.83501688 0,17.5 C0,27.1649831 7.83501688,35 17.5,35 Z" id="path-1"></path>
        <filter x="-50%" y="-50%" width="200%" height="200%" filterUnits="objectBoundingBox" id="filter-2">
            <feOffset dx="0" dy="2" in="SourceAlpha" result="shadowOffsetOuter1"></feOffset>
            <feGaussianBlur stdDeviation="4" in="shadowOffsetOuter1" result="shadowBlurOuter1"></feGaussianBlur>
            <feColorMatrix values="0 0 0 0 0.403921569   0 0 0 0 0.498039216   0 0 0 0 0.478431373  0 0 0 0.2 0" type="matrix" in="shadowBlurOuter1"></feColorMatrix>
        </filter>
        <path d="M17.5,35 C27.1649831,35 35,27.1649831 35,17.5 C35,7.83501688 27.1649831,0 17.5,0 C7.83501688,0 0,7.83501688 0,17.5 C0,27.1649831 7.83501688,35 17.5,35 Z" id="path-3"></path>
        <filter x="-50%" y="-50%" width="200%" height="200%" filterUnits="objectBoundingBox" id="filter-4">
            <feOffset dx="0" dy="2" in="SourceAlpha" result="shadowOffsetOuter1"></feOffset>
            <feGaussianBlur stdDeviation="4" in="shadowOffsetOuter1" result="shadowBlurOuter1"></feGaussianBlur>
            <feColorMatrix values="0 0 0 0 0.403921569   0 0 0 0 0.498039216   0 0 0 0 0.478431373  0 0 0 0.2 0" type="matrix" in="shadowBlurOuter1"></feColorMatrix>
        </filter>
        <path d="M17.5,35 C27.1649831,35 35,27.1649831 35,17.5 C35,7.83501688 27.1649831,0 17.5,0 C7.83501688,0 0,7.83501688 0,17.5 C0,27.1649831 7.83501688,35 17.5,35 Z" id="path-5"></path>
        <filter x="-50%" y="-50%" width="200%" height="200%" filterUnits="objectBoundingBox" id="filter-6">
            <feOffset dx="0" dy="2" in="SourceAlpha" result="shadowOffsetOuter1"></feOffset>
            <feGaussianBlur stdDeviation="4" in="shadowOffsetOuter1" result="shadowBlurOuter1"></feGaussianBlur>
            <feColorMatrix values="0 0 0 0 0.403921569   0 0 0 0 0.498039216   0 0 0 0 0.478431373  0 0 0 0.2 0" type="matrix" in="shadowBlurOuter1"></feColorMatrix>
        </filter>
    </defs>
    <g id="Page-1" stroke="none" stroke-width="1" fill="none" fill-rule="evenodd">
        <g id="Desktop">
            <g id="Header" transform="translate(0.000000, -2.000000)">
                <rect id="Background" fill="#F1FDF3" x="0" y="0" width="1314" height="576"></rect>
                <path d="M64,568 C97,564 246.665789,543.231416 359.019801,490 C454,445 488,481 554,481 C620,481 693.364776,432 757.182388,390 C821,348 863,356 954,356 C1075,356 1099,251 1154,210 C1226,153 1314,126 1314,126 L1314,576 L0,576 C0,576 31,572 64,568 Z" id="Graph" fill-opacity="0.5" fill="#406DA8" style="mix-blend-mode: color-burn;"></path>
                <g id="Emoji-fireworks" transform="translate(1126.000000, 104.000000)">
                    <g id="fireworks" transform="translate(88.000000, 39.000000)">
                        <g id="Oval">
                            <use fill="black" fill-opacity="1" filter="url(#filter-2)" xlink:href="#path-1"></use>
                            <use fill="#FFFFFF" fill-rule="evenodd" xlink:href="#path-1"></use>
                        </g>
                        <g id="Group" transform="translate(5.000000, 5.000000)" fill-rule="nonzero">
                            <g transform="translate(6.250000, 6.557377)" id="Shape" fill="#6ADBC6">
                                <path d="M6.25,5.24590164 C6.25,5.24590164 5.54166667,0.860655738 5.54166667,0.532786885 C5.54166667,0.204918033 5.875,0 6.25,0 C6.625,0 6.95833333,0.245901639 6.95833333,0.573770492 C6.95833333,0.901639344 6.25,5.24590164 6.25,5.24590164"></path>
                                <path d="M6.25,6.2704918 C6.25,6.2704918 6.95833333,10.6557377 6.95833333,10.9836066 C6.95833333,11.2704918 6.625,11.557377 6.25,11.557377 C5.875,11.557377 5.54166667,11.3114754 5.54166667,10.9836066 C5.54166667,10.6557377 6.25,6.2704918 6.25,6.2704918"></path>
                                <path d="M5.70833333,5.73770492 C5.70833333,5.73770492 1.25,6.43442623 0.916666667,6.43442623 C0.625,6.43442623 0.333333333,6.10655738 0.333333333,5.73770492 C0.333333333,5.36885246 0.583333333,5.04098361 0.916666667,5.04098361 C1.25,5.04098361 5.70833333,5.73770492 5.70833333,5.73770492"></path>
                                <path d="M6.79166667,5.73770492 C6.79166667,5.73770492 11.25,5.04098361 11.5833333,5.04098361 C11.875,5.04098361 12.1666667,5.36885246 12.1666667,5.73770492 C12.1666667,6.10655738 11.9166667,6.43442623 11.5833333,6.43442623 C11.25,6.43442623 6.79166667,5.73770492 6.79166667,5.73770492"></path>
                                <path d="M5.875,5.36885246 C5.875,5.36885246 2.20833333,2.74590164 2,2.54098361 C1.79166667,2.33606557 1.83333333,1.92622951 2.125,1.63934426 C2.41666667,1.35245902 2.79166667,1.31147541 3.04166667,1.51639344 C3.20833333,1.80327869 5.875,5.36885246 5.875,5.36885246"></path>
                                <path d="M6.625,6.10655738 C6.625,6.10655738 10.2916667,8.7295082 10.5,8.93442623 C10.7083333,9.13934426 10.6666667,9.54918033 10.375,9.83606557 C10.0833333,10.1229508 9.70833333,10.1639344 9.45833333,9.95901639 C9.29166667,9.71311475 6.625,6.10655738 6.625,6.10655738"></path>
                                <path d="M5.875,6.10655738 C5.875,6.10655738 3.20833333,9.71311475 3,9.91803279 C2.79166667,10.1229508 2.375,10.0819672 2.08333333,9.79508197 C1.79166667,9.50819672 1.75,9.13934426 1.95833333,8.89344262 C2.20833333,8.7295082 5.875,6.10655738 5.875,6.10655738"></path>
                                <path d="M6.625,5.36885246 C6.625,5.36885246 9.29166667,1.76229508 9.5,1.55737705 C9.70833333,1.35245902 10.125,1.39344262 10.4166667,1.68032787 C10.7083333,1.96721311 10.75,2.33606557 10.5416667,2.58196721 C10.2916667,2.78688525 6.625,5.36885246 6.625,5.36885246"></path>
                            </g>
                            <g transform="translate(2.500000, 2.459016)" id="Shape" fill="#FFCE31">
                                <path d="M9.66666667,8.97540984 C9.66666667,8.97540984 6,1.8852459 5.79166667,1.39344262 C5.58333333,0.901639344 5.70833333,0.368852459 6.08333333,0.204918033 C6.45833333,0.0409836066 6.91666667,0.368852459 7.125,0.860655738 C7.33333333,1.35245902 9.66666667,8.97540984 9.66666667,8.97540984"></path>
                                <path d="M10.3333333,10.6967213 C10.3333333,10.6967213 14,17.7868852 14.2083333,18.2786885 C14.4166667,18.7704918 14.2916667,19.3032787 13.9166667,19.4672131 C13.5416667,19.6311475 13.0833333,19.3032787 12.875,18.8114754 C12.6666667,18.3196721 10.3333333,10.6967213 10.3333333,10.6967213"></path>
                                <path d="M9.125,10.204918 C9.125,10.204918 1.91666667,13.8114754 1.41666667,14.0163934 C0.916666667,14.2213115 0.375,14.0983607 0.208333333,13.7295082 C0.0416666667,13.3606557 0.375,12.9098361 0.875,12.704918 C1.41666667,12.5 9.125,10.204918 9.125,10.204918"></path>
                                <path d="M10.875,9.50819672 C10.875,9.50819672 18.0833333,5.90163934 18.5833333,5.69672131 C19.0833333,5.49180328 19.625,5.6147541 19.7916667,5.98360656 C19.9583333,6.35245902 19.625,6.80327869 19.125,7.00819672 C18.5833333,7.17213115 10.875,9.50819672 10.875,9.50819672"></path>
                                <path d="M9.125,9.46721311 C9.125,9.46721311 1.45833333,7.00819672 0.916666667,6.80327869 C0.375,6.59836066 0.125,6.14754098 0.291666667,5.77868852 C0.458333333,5.40983607 1,5.32786885 1.5,5.53278689 C2,5.73770492 9.125,9.46721311 9.125,9.46721311"></path>
                                <path d="M10.875,10.204918 C10.875,10.204918 18.5416667,12.6639344 19.0833333,12.8688525 C19.5833333,13.0737705 19.875,13.5655738 19.75,13.8934426 C19.5833333,14.2622951 19.0416667,14.3442623 18.5416667,14.1393443 C18,13.9344262 10.875,10.204918 10.875,10.204918"></path>
                                <path d="M9.625,10.6967213 C9.625,10.6967213 7.125,18.2377049 6.91666667,18.7704918 C6.70833333,19.2622951 6.20833333,19.5491803 5.875,19.4262295 C5.5,19.2622951 5.41666667,18.7295082 5.625,18.2377049 C5.83333333,17.704918 9.625,10.6967213 9.625,10.6967213"></path>
                                <path d="M10.375,9.01639344 C10.375,9.01639344 12.875,1.47540984 13.0833333,0.942622951 C13.2916667,0.409836066 13.75,0.12295082 14.125,0.286885246 C14.5,0.450819672 14.5833333,0.983606557 14.375,1.47540984 C14.1666667,2.00819672 10.375,9.01639344 10.375,9.01639344"></path>
                            </g>
                            <g fill="#42ADE2">
                                <path d="M12.5,18.4836066 C12.5,18.4836066 13.2083333,23.6065574 13.2083333,23.9754098 C13.2083333,24.3442623 12.875,24.6311475 12.5,24.6311475 C12.125,24.6311475 11.7916667,24.3442623 11.7916667,23.9754098 C11.7916667,23.6065574 12.5,18.4836066 12.5,18.4836066" id="Shape"></path>
                                <path d="M12.5,5.73770492 C12.5,5.73770492 11.7916667,0.942622951 11.7916667,0.614754098 C11.7916667,0.286885246 12.0833333,0 12.5,0 C12.9166667,0 13.2083333,0.286885246 13.2083333,0.614754098 C13.2083333,0.942622951 12.5,5.73770492 12.5,5.73770492 Z" id="Shape"></path>
                                <path d="M16.9583333,16.6803279 C16.9583333,16.6803279 21.125,19.795082 21.4166667,20.0409836 C21.6666667,20.2868852 21.6666667,20.7377049 21.375,20.9836066 C21.0833333,21.2295082 20.6666667,21.2704918 20.4166667,21.0245902 C20.125,20.7786885 16.9583333,16.6803279 16.9583333,16.6803279" id="Shape"></path>
                                <path d="M7.79166667,7.66393443 C7.79166667,7.66393443 3.83333333,4.79508197 3.625,4.54918033 C3.375,4.30327869 3.41666667,3.89344262 3.70833333,3.60655738 C4,3.31967213 4.41666667,3.31967213 4.66666667,3.52459016 C4.83333333,3.7704918 7.79166667,7.66393443 7.79166667,7.66393443" id="Shape"></path>
                                <path d="M16.9583333,7.90983607 C16.9583333,7.90983607 20.125,3.81147541 20.375,3.52459016 C20.625,3.27868852 21.0833333,3.27868852 21.3333333,3.56557377 C21.625,3.85245902 21.625,4.26229508 21.375,4.50819672 C21.125,4.79508197 16.9583333,7.90983607 16.9583333,7.90983607" id="Shape"></path>
                                <path d="M7.79166667,16.9262295 C7.79166667,16.9262295 4.875,20.8196721 4.625,21.0245902 C4.375,21.2704918 3.95833333,21.2295082 3.66666667,20.942623 C3.375,20.6557377 3.33333333,20.2868852 3.58333333,20.0819672 C3.83333333,19.8360656 7.79166667,16.9262295 7.79166667,16.9262295" id="Shape"></path>
                                <path d="M18.7916667,12.295082 C18.7916667,12.295082 24,11.5983607 24.375,11.5983607 C24.75,11.5983607 25,11.8852459 25,12.295082 C25,12.6639344 24.7083333,12.9918033 24.3333333,12.9918033 C24,12.9918033 18.7916667,12.295082 18.7916667,12.295082" id="Shape"></path>
                                <path d="M5.83333333,12.295082 C5.83333333,12.295082 0.958333333,12.9918033 0.625,12.9918033 C0.291666667,12.9918033 0,12.704918 0,12.295082 C0,11.8852459 0.291666667,11.5983607 0.625,11.5983607 C0.958333333,11.5983607 5.83333333,12.295082 5.83333333,12.295082 Z" id="Shape"></path>
                                <ellipse id="Oval" cx="7.79166667" cy="1.2704918" rx="0.75" ry="0.737704918"></ellipse>
                                <ellipse id="Oval" cx="17.2916667" cy="1.2704918" rx="0.75" ry="0.737704918"></ellipse>
                                <ellipse id="Oval" cx="7.58333333" cy="23.3606557" rx="0.75" ry="0.737704918"></ellipse>
                                <ellipse id="Oval" cx="17.0833333" cy="23.3606557" rx="0.75" ry="0.737704918"></ellipse>
                                <ellipse id="Oval" cx="1.20833333" cy="16.8852459" rx="0.75" ry="0.737704918"></ellipse>
                                <ellipse id="Oval" cx="1.20833333" cy="7.54098361" rx="0.75" ry="0.737704918"></ellipse>
                                <ellipse id="Oval" cx="23.6666667" cy="17.0901639" rx="0.75" ry="0.737704918"></ellipse>
                                <ellipse id="Oval" cx="23.6666667" cy="7.74590164" rx="0.75" ry="0.737704918"></ellipse>
                            </g>
                        </g>
                    </g>
                    <g id="fireworks" opacity="0.199999988" transform="translate(31.000000, 31.000000) rotate(-30.000000) translate(-31.000000, -31.000000) translate(9.000000, 9.000000)" fill-rule="nonzero">
                        <g id="Group" transform="translate(-0.000000, -0.000000)">
                            <g transform="translate(11.000000, 11.540984)" id="Shape" fill="#6ADBC6">
                                <path d="M11,9.23278689 C11,9.23278689 9.75333333,1.5147541 9.75333333,0.937704918 C9.75333333,0.360655738 10.34,7.10542736e-15 11,7.10542736e-15 C11.66,7.10542736e-15 12.2466667,0.432786885 12.2466667,1.00983607 C12.2466667,1.58688525 11,9.23278689 11,9.23278689"></path>
                                <path d="M11,11.0360656 C11,11.0360656 12.2466667,18.7540984 12.2466667,19.3311475 C12.2466667,19.8360656 11.66,20.3409836 11,20.3409836 C10.34,20.3409836 9.75333333,19.9081967 9.75333333,19.3311475 C9.75333333,18.7540984 11,11.0360656 11,11.0360656"></path>
                                <path d="M10.0466667,10.0983607 C10.0466667,10.0983607 2.2,11.3245902 1.61333333,11.3245902 C1.1,11.3245902 0.586666667,10.747541 0.586666667,10.0983607 C0.586666667,9.44918033 1.02666667,8.87213115 1.61333333,8.87213115 C2.2,8.87213115 10.0466667,10.0983607 10.0466667,10.0983607"></path>
                                <path d="M11.9533333,10.0983607 C11.9533333,10.0983607 19.8,8.87213115 20.3866667,8.87213115 C20.9,8.87213115 21.4133333,9.44918033 21.4133333,10.0983607 C21.4133333,10.747541 20.9733333,11.3245902 20.3866667,11.3245902 C19.8,11.3245902 11.9533333,10.0983607 11.9533333,10.0983607"></path>
                                <path d="M10.34,9.44918033 C10.34,9.44918033 3.88666667,4.83278689 3.52,4.47213115 C3.15333333,4.11147541 3.22666667,3.39016393 3.74,2.8852459 C4.25333333,2.38032787 4.91333333,2.30819672 5.35333333,2.66885246 C5.64666667,3.17377049 10.34,9.44918033 10.34,9.44918033"></path>
                                <path d="M11.66,10.747541 C11.66,10.747541 18.1133333,15.3639344 18.48,15.7245902 C18.8466667,16.0852459 18.7733333,16.8065574 18.26,17.3114754 C17.7466667,17.8163934 17.0866667,17.8885246 16.6466667,17.5278689 C16.3533333,17.095082 11.66,10.747541 11.66,10.747541"></path>
                                <path d="M10.34,10.747541 C10.34,10.747541 5.64666667,17.095082 5.28,17.4557377 C4.91333333,17.8163934 4.18,17.7442623 3.66666667,17.2393443 C3.15333333,16.7344262 3.08,16.0852459 3.44666667,15.652459 C3.88666667,15.3639344 10.34,10.747541 10.34,10.747541"></path>
                                <path d="M11.66,9.44918033 C11.66,9.44918033 16.3533333,3.10163934 16.72,2.74098361 C17.0866667,2.38032787 17.82,2.45245902 18.3333333,2.95737705 C18.8466667,3.46229508 18.92,4.11147541 18.5533333,4.5442623 C18.1133333,4.90491803 11.66,9.44918033 11.66,9.44918033"></path>
                            </g>
                            <g transform="translate(4.400000, 4.327869)" id="Shape" fill="#FFCE31">
                                <path d="M17.0133333,15.7967213 C17.0133333,15.7967213 10.56,3.31803279 10.1933333,2.45245902 C9.82666667,1.58688525 10.0466667,0.649180328 10.7066667,0.360655738 C11.3666667,0.0721311475 12.1733333,0.649180328 12.54,1.5147541 C12.9066667,2.38032787 17.0133333,15.7967213 17.0133333,15.7967213"></path>
                                <path d="M18.1866667,18.8262295 C18.1866667,18.8262295 24.64,31.304918 25.0066667,32.1704918 C25.3733333,33.0360656 25.1533333,33.9737705 24.4933333,34.2622951 C23.8333333,34.5508197 23.0266667,33.9737705 22.66,33.1081967 C22.2933333,32.242623 18.1866667,18.8262295 18.1866667,18.8262295"></path>
                                <path d="M16.06,17.9606557 C16.06,17.9606557 3.37333333,24.3081967 2.49333333,24.6688525 C1.61333333,25.0295082 0.66,24.8131148 0.366666667,24.1639344 C0.0733333333,23.5147541 0.66,22.7213115 1.54,22.3606557 C2.49333333,22 16.06,17.9606557 16.06,17.9606557"></path>
                                <path d="M19.14,16.7344262 C19.14,16.7344262 31.8266667,10.3868852 32.7066667,10.0262295 C33.5866667,9.66557377 34.54,9.88196721 34.8333333,10.5311475 C35.1266667,11.1803279 34.54,11.9737705 33.66,12.3344262 C32.7066667,12.6229508 19.14,16.7344262 19.14,16.7344262"></path>
                                <path d="M16.06,16.6622951 C16.06,16.6622951 2.56666667,12.3344262 1.61333333,11.9737705 C0.66,11.6131148 0.22,10.8196721 0.513333333,10.1704918 C0.806666667,9.52131148 1.76,9.37704918 2.64,9.73770492 C3.52,10.0983607 16.06,16.6622951 16.06,16.6622951"></path>
                                <path d="M19.14,17.9606557 C19.14,17.9606557 32.6333333,22.2885246 33.5866667,22.6491803 C34.4666667,23.0098361 34.98,23.8754098 34.76,24.452459 C34.4666667,25.1016393 33.5133333,25.2459016 32.6333333,24.8852459 C31.68,24.5245902 19.14,17.9606557 19.14,17.9606557"></path>
                                <path d="M16.94,18.8262295 C16.94,18.8262295 12.54,32.0983607 12.1733333,33.0360656 C11.8066667,33.9016393 10.9266667,34.4065574 10.34,34.1901639 C9.68,33.9016393 9.53333333,32.9639344 9.9,32.0983607 C10.2666667,31.1606557 16.94,18.8262295 16.94,18.8262295"></path>
                                <path d="M18.26,15.8688525 C18.26,15.8688525 22.66,2.59672131 23.0266667,1.65901639 C23.3933333,0.721311475 24.2,0.216393443 24.86,0.504918033 C25.52,0.793442623 25.6666667,1.73114754 25.3,2.59672131 C24.9333333,3.53442623 18.26,15.8688525 18.26,15.8688525"></path>
                            </g>
                            <g fill="#42ADE2">
                                <path d="M22,32.5311475 C22,32.5311475 23.2466667,41.547541 23.2466667,42.1967213 C23.2466667,42.8459016 22.66,43.3508197 22,43.3508197 C21.34,43.3508197 20.7533333,42.8459016 20.7533333,42.1967213 C20.7533333,41.547541 22,32.5311475 22,32.5311475" id="Shape"></path>
                                <path d="M22,10.0983607 C22,10.0983607 20.7533333,1.65901639 20.7533333,1.08196721 C20.7533333,0.504918033 21.2666667,7.46069873e-14 22,7.46069873e-14 C22.7333333,7.46069873e-14 23.2466667,0.504918033 23.2466667,1.08196721 C23.2466667,1.65901639 22,10.0983607 22,10.0983607 Z" id="Shape"></path>
                                <path d="M29.8466667,29.357377 C29.8466667,29.357377 37.18,34.8393443 37.6933333,35.2721311 C38.1333333,35.704918 38.1333333,36.4983607 37.62,36.9311475 C37.1066667,37.3639344 36.3733333,37.4360656 35.9333333,37.0032787 C35.42,36.5704918 29.8466667,29.357377 29.8466667,29.357377" id="Shape"></path>
                                <path d="M13.7133333,13.4885246 C13.7133333,13.4885246 6.74666667,8.43934426 6.38,8.00655738 C5.94,7.57377049 6.01333333,6.85245902 6.52666667,6.34754098 C7.04,5.84262295 7.77333333,5.84262295 8.21333333,6.20327869 C8.50666667,6.63606557 13.7133333,13.4885246 13.7133333,13.4885246" id="Shape"></path>
                                <path d="M29.8466667,13.9213115 C29.8466667,13.9213115 35.42,6.70819672 35.86,6.20327869 C36.3,5.7704918 37.1066667,5.7704918 37.5466667,6.27540984 C38.06,6.78032787 38.06,7.50163934 37.62,7.93442623 C37.18,8.43934426 29.8466667,13.9213115 29.8466667,13.9213115" id="Shape"></path>
                                <path d="M13.7133333,29.7901639 C13.7133333,29.7901639 8.58,36.642623 8.14,37.0032787 C7.7,37.4360656 6.96666667,37.3639344 6.45333333,36.8590164 C5.94,36.3540984 5.86666667,35.704918 6.30666667,35.3442623 C6.74666667,34.9114754 13.7133333,29.7901639 13.7133333,29.7901639" id="Shape"></path>
                                <path d="M33.0733333,21.6393443 C33.0733333,21.6393443 42.24,20.4131148 42.9,20.4131148 C43.56,20.4131148 44,20.9180328 44,21.6393443 C44,22.2885246 43.4866667,22.8655738 42.8266667,22.8655738 C42.24,22.8655738 33.0733333,21.6393443 33.0733333,21.6393443" id="Shape"></path>
                                <path d="M10.2666667,21.6393443 C10.2666667,21.6393443 1.68666667,22.8655738 1.1,22.8655738 C0.513333333,22.8655738 2.48689958e-13,22.3606557 2.48689958e-13,21.6393443 C2.48689958e-13,20.9180328 0.513333333,20.4131148 1.1,20.4131148 C1.68666667,20.4131148 10.2666667,21.6393443 10.2666667,21.6393443 Z" id="Shape"></path>
                                <ellipse id="Oval" cx="13.7133333" cy="2.23606557" rx="1.32" ry="1.29836066"></ellipse>
                                <ellipse id="Oval" cx="30.4333333" cy="2.23606557" rx="1.32" ry="1.29836066"></ellipse>
                                <ellipse id="Oval" cx="13.3466667" cy="41.1147541" rx="1.32" ry="1.29836066"></ellipse>
                                <ellipse id="Oval" cx="30.0666667" cy="41.1147541" rx="1.32" ry="1.29836066"></ellipse>
                                <ellipse id="Oval" cx="2.12666667" cy="29.7180328" rx="1.32" ry="1.29836066"></ellipse>
                                <ellipse id="Oval" cx="2.12666667" cy="13.2721311" rx="1.32" ry="1.29836066"></ellipse>
                                <ellipse id="Oval" cx="41.6533333" cy="30.0786885" rx="1.32" ry="1.29836066"></ellipse>
                                <ellipse id="Oval" cx="41.6533333" cy="13.6327869" rx="1.32" ry="1.29836066"></ellipse>
                            </g>
                        </g>
                    </g>
                    <g id="fireworks" opacity="0.200000018" transform="translate(122.280045, 114.667672) rotate(-345.000000) translate(-122.280045, -114.667672) translate(102.280045, 95.167672)" fill-rule="nonzero">
                        <g id="Group" transform="translate(-0.000000, -0.000000)">
                            <g transform="translate(9.852480, 10.337028)" id="Shape" fill="#6ADBC6">
                                <path d="M9.85247991,8.26962248 C9.85247991,8.26962248 8.73586552,1.35673494 8.73586552,0.839883533 C8.73586552,0.323032128 9.26133111,0 9.85247991,0 C10.4436287,0 10.9690943,0.387638554 10.9690943,0.904489959 C10.9690943,1.42134136 9.85247991,8.26962248 9.85247991,8.26962248"></path>
                                <path d="M9.85247991,9.88478312 C9.85247991,9.88478312 10.9690943,16.7976707 10.9690943,17.3145221 C10.9690943,17.766767 10.4436287,18.219012 9.85247991,18.219012 C9.26133111,18.219012 8.73586552,17.8313735 8.73586552,17.3145221 C8.73586552,16.7976707 9.85247991,9.88478312 9.85247991,9.88478312"></path>
                                <path d="M8.99859832,9.04489959 C8.99859832,9.04489959 1.97049598,10.1432088 1.44503039,10.1432088 C0.985247991,10.1432088 0.525465595,9.62635742 0.525465595,9.04489959 C0.525465595,8.46344176 0.919564791,7.94659035 1.44503039,7.94659035 C1.97049598,7.94659035 8.99859832,9.04489959 8.99859832,9.04489959"></path>
                                <path d="M10.7063615,9.04489959 C10.7063615,9.04489959 17.7344638,7.94659035 18.2599294,7.94659035 C18.7197118,7.94659035 19.1794942,8.46344176 19.1794942,9.04489959 C19.1794942,9.62635742 18.785395,10.1432088 18.2599294,10.1432088 C17.7344638,10.1432088 10.7063615,9.04489959 10.7063615,9.04489959"></path>
                                <path d="M9.26133111,8.46344176 C9.26133111,8.46344176 3.48120957,4.32863052 3.15279357,4.00559839 C2.82437757,3.68256626 2.89006077,3.036502 3.34984317,2.58425702 C3.80962556,2.13201205 4.40077436,2.06740562 4.79487356,2.39043775 C5.05760635,2.84268273 9.26133111,8.46344176 9.26133111,8.46344176"></path>
                                <path d="M10.4436287,9.62635742 C10.4436287,9.62635742 16.2237502,13.7611687 16.5521662,14.0842008 C16.8805822,14.4072329 16.814899,15.0532972 16.3551166,15.5055422 C15.8953343,15.9577871 15.3041855,16.0223936 14.9100863,15.6993614 C14.6473535,15.3117229 10.4436287,9.62635742 10.4436287,9.62635742"></path>
                                <path d="M9.26133111,9.62635742 C9.26133111,9.62635742 5.05760635,15.3117229 4.72919036,15.634755 C4.40077436,15.9577871 3.74394236,15.8931807 3.28415997,15.4409357 C2.82437757,14.9886907 2.75869437,14.4072329 3.08711037,14.0195944 C3.48120957,13.7611687 9.26133111,9.62635742 9.26133111,9.62635742"></path>
                                <path d="M10.4436287,8.46344176 C10.4436287,8.46344176 14.6473535,2.7780763 14.9757695,2.45504417 C15.3041855,2.13201205 15.9610175,2.19661847 16.4207998,2.64886345 C16.8805822,3.10110843 16.9462654,3.68256626 16.6178494,4.07020481 C16.2237502,4.39323694 10.4436287,8.46344176 10.4436287,8.46344176"></path>
                            </g>
                            <g transform="translate(3.940992, 3.876386)" id="Shape" fill="#FFCE31">
                                <path d="M15.2385023,14.1488072 C15.2385023,14.1488072 9.45838071,2.97189558 9.12996471,2.19661847 C8.80154872,1.42134136 8.99859832,0.581457831 9.58974711,0.323032128 C10.1808959,0.0646064256 10.9034111,0.581457831 11.2318271,1.35673494 C11.5602431,2.13201205 15.2385023,14.1488072 15.2385023,14.1488072"></path>
                                <path d="M16.2894334,16.8622771 C16.2894334,16.8622771 22.069555,28.0391887 22.397971,28.8144658 C22.726387,29.5897429 22.5293374,30.4296265 21.9381886,30.6880522 C21.3470398,30.9464779 20.6245246,30.4296265 20.2961086,29.6543494 C19.9676926,28.8790723 16.2894334,16.8622771 16.2894334,16.8622771"></path>
                                <path d="M14.3846207,16.087 C14.3846207,16.087 3.02142717,21.7723654 2.23322878,22.0953976 C1.44503039,22.4184297 0.591148794,22.2246104 0.328415997,21.6431526 C0.0656831994,21.0616948 0.591148794,20.3510241 1.37934719,20.0279919 C2.23322878,19.7049598 14.3846207,16.087 14.3846207,16.087"></path>
                                <path d="M17.143315,14.9886907 C17.143315,14.9886907 28.5065085,9.30332529 29.2947069,8.98029316 C30.0829053,8.65726103 30.9367869,8.85108031 31.1995197,9.43253814 C31.4622525,10.013996 30.9367869,10.7246667 30.1485885,11.0476988 C29.2947069,11.3061245 17.143315,14.9886907 17.143315,14.9886907"></path>
                                <path d="M14.3846207,14.9240843 C14.3846207,14.9240843 2.29891198,11.0476988 1.44503039,10.7246667 C0.591148794,10.4016345 0.197049598,9.69096384 0.459782396,9.10950601 C0.722515193,8.52804818 1.57639679,8.39883533 2.36459518,8.72186746 C3.15279357,9.04489959 14.3846207,14.9240843 14.3846207,14.9240843"></path>
                                <path d="M17.143315,16.087 C17.143315,16.087 29.2290237,19.9633855 30.0829053,20.2864176 C30.8711037,20.6094498 31.3308861,21.3847269 31.1338365,21.9015783 C30.8711037,22.4830361 30.0172221,22.612249 29.2290237,22.2892168 C28.3751421,21.9661847 17.143315,16.087 17.143315,16.087"></path>
                                <path d="M15.1728191,16.8622771 C15.1728191,16.8622771 11.2318271,28.7498594 10.9034111,29.5897429 C10.5749951,30.36502 9.78679671,30.817265 9.26133111,30.6234457 C8.67018232,30.36502 8.53881592,29.5251365 8.86723192,28.7498594 C9.19564791,27.9099759 15.1728191,16.8622771 15.1728191,16.8622771"></path>
                                <path d="M16.3551166,14.2134136 C16.3551166,14.2134136 20.2961086,2.32583132 20.6245246,1.48594779 C20.9529406,0.646064256 21.6754558,0.193819277 22.2666046,0.452244979 C22.8577534,0.710670682 22.9891198,1.55055421 22.6607038,2.32583132 C22.3322878,3.16571486 16.3551166,14.2134136 16.3551166,14.2134136"></path>
                            </g>
                            <g fill="#42ADE2">
                                <path d="M19.7049598,29.137498 C19.7049598,29.137498 20.8215742,37.2133012 20.8215742,37.794759 C20.8215742,38.3762168 20.2961086,38.8284618 19.7049598,38.8284618 C19.113811,38.8284618 18.5883454,38.3762168 18.5883454,37.794759 C18.5883454,37.2133012 19.7049598,29.137498 19.7049598,29.137498" id="Shape"></path>
                                <path d="M19.7049598,9.04489959 C19.7049598,9.04489959 18.5883454,1.48594779 18.5883454,0.969096384 C18.5883454,0.452244979 19.0481278,-1.63424829e-13 19.7049598,-1.63424829e-13 C20.3617918,-1.63424829e-13 20.8215742,0.452244979 20.8215742,0.969096384 C20.8215742,1.48594779 19.7049598,9.04489959 19.7049598,9.04489959 Z" id="Shape"></path>
                                <path d="M26.7330621,26.2948152 C26.7330621,26.2948152 33.3013821,31.2049036 33.7611645,31.5925421 C34.1552637,31.9801807 34.1552637,32.6908514 33.6954813,33.0784899 C33.2356989,33.4661285 32.5788669,33.5307349 32.1847677,33.1430963 C31.7249853,32.7554578 26.7330621,26.2948152 26.7330621,26.2948152" id="Shape"></path>
                                <path d="M12.2827583,12.0814016 C12.2827583,12.0814016 6.04285434,7.5589518 5.71443835,7.17131324 C5.32033915,6.78367469 5.38602235,6.13761043 5.84580475,5.68536545 C6.30558714,5.23312048 6.96241913,5.23312048 7.35651833,5.5561526 C7.61925113,5.94379116 12.2827583,12.0814016 12.2827583,12.0814016" id="Shape"></path>
                                <path d="M26.7330621,12.4690401 C26.7330621,12.4690401 31.7249853,6.00839758 32.1190845,5.5561526 C32.5131837,5.16851405 33.2356989,5.16851405 33.6297981,5.62075903 C34.0895805,6.07300401 34.0895805,6.71906827 33.6954813,7.10670682 C33.3013821,7.5589518 26.7330621,12.4690401 26.7330621,12.4690401" id="Shape"></path>
                                <path d="M12.2827583,26.6824538 C12.2827583,26.6824538 7.68493433,32.8200642 7.29083513,33.1430963 C6.89673594,33.5307349 6.23990394,33.4661285 5.78012155,33.0138835 C5.32033915,32.5616385 5.25465595,31.9801807 5.64875515,31.6571486 C6.04285434,31.26951 12.2827583,26.6824538 12.2827583,26.6824538" id="Shape"></path>
                                <path d="M29.6231229,19.3819277 C29.6231229,19.3819277 37.8335228,18.2836185 38.4246716,18.2836185 C39.0158204,18.2836185 39.4099196,18.7358634 39.4099196,19.3819277 C39.4099196,19.9633855 38.9501372,20.4802369 38.3589884,20.4802369 C37.8335228,20.4802369 29.6231229,19.3819277 29.6231229,19.3819277" id="Shape"></path>
                                <path d="M9.19564791,19.3819277 C9.19564791,19.3819277 1.51071359,20.4802369 0.985247991,20.4802369 C0.459782396,20.4802369 3.41060513e-13,20.0279919 3.41060513e-13,19.3819277 C3.41060513e-13,18.7358634 0.459782396,18.2836185 0.985247991,18.2836185 C1.51071359,18.2836185 9.19564791,19.3819277 9.19564791,19.3819277 Z" id="Shape"></path>
                                <ellipse id="Oval" cx="12.2827583" cy="2.00279919" rx="1.18229759" ry="1.16291566"></ellipse>
                                <ellipse id="Oval" cx="27.2585277" cy="2.00279919" rx="1.18229759" ry="1.16291566"></ellipse>
                                <ellipse id="Oval" cx="11.9543423" cy="36.8256626" rx="1.18229759" ry="1.16291566"></ellipse>
                                <ellipse id="Oval" cx="26.9301117" cy="36.8256626" rx="1.18229759" ry="1.16291566"></ellipse>
                                <ellipse id="Oval" cx="1.90481278" cy="26.6178474" rx="1.18229759" ry="1.16291566"></ellipse>
                                <ellipse id="Oval" cx="1.90481278" cy="11.8875823" rx="1.18229759" ry="1.16291566"></ellipse>
                                <ellipse id="Oval" cx="37.3080573" cy="26.9408795" rx="1.18229759" ry="1.16291566"></ellipse>
                                <ellipse id="Oval" cx="37.3080573" cy="12.2106144" rx="1.18229759" ry="1.16291566"></ellipse>
                            </g>
                        </g>
                    </g>
                    <g id="fireworks" transform="translate(49.000000, 1.000000)" fill-rule="nonzero">
                        <path d="M20.540042,53.5403978 L19.1559569,53.0323159 L19.9326797,51.7767112 C20.2539972,51.2504354 20.1108729,50.5650419 19.6057967,50.2113341 C19.1007205,49.8576262 18.4076967,49.9574604 18.0229926,50.4393463 L17.1119492,51.6073506 L16.1541857,50.4919065 C15.7583243,50.0008072 15.0440534,49.9127379 14.5407569,50.2929712 C14.0374605,50.6732046 13.926989,51.3843552 14.2912188,51.8993517 L15.1146618,53.1257563 L13.7480967,53.7097584 C13.1617949,53.9358117 12.859412,54.5852119 13.0637705,55.1794236 C13.268129,55.7736353 13.9059805,56.0996744 14.5072996,55.9172866 L15.9264248,55.5143251 L16.0432253,56.9159304 C16.0891496,57.5265622 16.5988757,57.9980589 17.2112296,57.9963344 L17.2112296,57.9963344 C17.8384871,57.9968364 18.3541439,57.5018059 18.379234,56.8750502 L18.4317942,55.4033647 L19.8625995,55.753766 C20.4628371,55.8959079 21.0701309,55.5468004 21.2493616,54.9565751 C21.4285923,54.3663499 21.1179656,53.7385021 20.540042,53.5228777 L20.540042,53.5403978 Z" id="Shape" fill="#FFCE31"></path>
                        <circle id="Oval" fill="#6EC24D" cx="107" cy="45" r="2"></circle>
                        <path d="M97.5137628,16.3300415 C97.2137628,15.8050415 96.6137628,15.4675415 95.9012628,15.4675415 C94.9262628,15.4675415 94.1387628,16.1425415 94.1387628,16.9675415 C94.1387628,18.4675415 97.5137628,21.4675415 97.5137628,21.4675415 C97.5137628,21.4675415 100.888763,18.4675415 100.888763,16.9675415 C100.888763,16.1425415 100.101263,15.4675415 99.1262628,15.4675415 C98.4137628,15.4675415 97.8137628,15.8050415 97.5137628,16.3300415 Z" id="Shape" fill="#E84D88" transform="translate(97.513763, 18.467542) rotate(19.000000) translate(-97.513763, -18.467542) "></path>
                        <circle id="Oval-Copy-2" fill="#42ADE2" cx="37" cy="83" r="2"></circle>
                        <circle id="Oval-Copy" fill="#6EC24D" cx="59" cy="2" r="2"></circle>
                        <path d="M29.1970247,17.3649323 L28.1463693,16.9792487 L28.7359776,16.0261224 C28.9798889,15.6266278 28.8712436,15.1063474 28.4878415,14.8378487 C28.1044395,14.56935 27.5783669,14.6451338 27.2863391,15.0109322 L26.5947684,15.8975612 L25.8677326,15.0508305 C25.5672352,14.6780383 25.0250341,14.6111851 24.6429831,14.8998193 C24.260932,15.1884534 24.1770734,15.728286 24.4535593,16.1192185 L25.0786328,17.050179 L24.0412768,17.4934935 C23.5962166,17.66509 23.3666785,18.1580479 23.5218065,18.6091125 C23.6769345,19.060177 24.1611259,19.3076725 24.6175856,19.1692224 L25.69484,18.8633354 L25.7835029,19.9272903 C25.8183639,20.3908193 26.2052956,20.7487312 26.6701319,20.7474222 L26.6701319,20.7474222 C27.1462815,20.7478032 27.5377151,20.3720269 27.556761,19.8962583 L27.5966593,18.7791056 L28.6827799,19.0450944 C29.1384187,19.1529939 29.5994138,18.8879873 29.7354674,18.4399488 C29.8715209,17.9919104 29.635725,17.5153127 29.1970247,17.3516329 L29.1970247,17.3649323 Z" id="Shape-Copy" fill="#42ADE2" transform="translate(26.623653, 17.712426) rotate(-78.000000) translate(-26.623653, -17.712426) "></path>
                        <path d="M96.1760981,72.8105777 L95.2985325,72.4884334 L95.791006,71.6923296 C95.9947342,71.3586496 95.9039877,70.9240826 95.5837491,70.6998176 C95.2635104,70.4755526 94.8241055,70.5388515 94.5801877,70.8443865 L94.0025496,71.5849482 L93.395289,70.8777118 C93.144297,70.5663351 92.6914206,70.5104956 92.3723104,70.7515789 C92.0532002,70.9926621 91.9831569,71.4435601 92.2140932,71.7700886 L92.7361892,72.5476783 L91.869732,72.9179592 C91.4979931,73.061286 91.3062702,73.4730318 91.4358417,73.8497859 C91.5654132,74.22654 91.9698366,74.4332619 92.3510971,74.3176207 L93.2508795,74.062127 L93.3249357,74.950801 C93.3540535,75.3379661 93.6772404,75.6369139 94.0654973,75.6358205 L94.0654973,75.6358205 C94.4632038,75.6361388 94.7901509,75.3222696 94.806059,74.9248813 L94.8393843,73.9917736 L95.7465723,74.2139421 C96.1271471,74.3040658 96.5121958,74.0827176 96.6258352,73.7084911 C96.7394747,73.3342645 96.5425249,72.9361838 96.1760981,72.7994693 L96.1760981,72.8105777 Z" id="Shape-Copy-2" fill="#42ADE2" transform="translate(94.026675, 73.100823) rotate(-78.000000) translate(-94.026675, -73.100823) "></path>
                        <rect id="Rectangle-path" fill="#FFCE31" transform="translate(68.529479, 21.529450) rotate(-48.287476) translate(-68.529479, -21.529450) " x="66.0298347" y="19.0294504" width="4.99928917" height="5"></rect>
                        <rect id="Rectangle-path-Copy" fill="#E84D88" transform="translate(2.529621, 75.529450) rotate(-48.287476) translate(-2.529621, -75.529450) " x="1.02983467" y="74.0294504" width="2.9995735" height="3"></rect>
                    </g>
                </g>
                <g id="Emoji" transform="translate(1017.000000, 316.000000)">
                    <g id="Oval">
                        <use fill="black" fill-opacity="1" filter="url(#filter-4)" xlink:href="#path-3"></use>
                        <use fill="#FFFFFF" fill-rule="evenodd" xlink:href="#path-3"></use>
                    </g>
                    <g id="emoji-sunglasses" transform="translate(5.000000, 5.000000)" fill-rule="nonzero">
                        <g id="Group">
                            <path d="M12.5,0 C19.4166667,0 25,5.58333333 25,12.5 C25,19.4166667 19.4166667,25 12.5,25 C5.58333333,25 0,19.4166667 0,12.5 C0,5.58333333 5.58333333,0 12.5,0" id="Shape" fill="#FFDD67"></path>
                            <path d="M14.0833333,7.70833333 C13.1666667,8.16666667 11.7916667,8.16666667 10.875,7.70833333 C9.91666667,7.20833333 8.70833333,6.875 7.25,6.75 C5.83333333,6.625 2.875,6.625 1.41666667,7.16666667 C1.25,7.20833333 1.08333333,7.29166667 0.916666667,7.375 C0.875,7.41666667 0.833333333,7.45833333 0.833333333,7.625 L0.833333333,7.83333333 C0.833333333,8.25 0.791666667,8.08333333 1.08333333,8.25 C1.66666667,8.58333333 2,9.45833333 2.16666667,10.6666667 C2.41666667,12.4166667 3.29166667,13.5416667 4.66666667,14.0416667 C5.95833333,14.5416667 7.41666667,14.5 8.70833333,14 C9.41666667,13.7083333 10.0416667,13.2916667 10.5416667,12.5416667 C11.4166667,11.2916667 11.125,10.5 11.5833333,9.41666667 C11.9583333,8.45833333 13.0416667,8.45833333 13.4583333,9.41666667 C13.9166667,10.5 13.625,11.2916667 14.5,12.5416667 C15,13.25 15.625,13.7083333 16.3333333,14 C17.625,14.5 19.0833333,14.5416667 20.375,14.0416667 C21.7916667,13.5 22.625,12.4166667 22.875,10.6666667 C23.0416667,9.45833333 23.375,8.58333333 23.9583333,8.25 C24.25,8.08333333 24.2083333,8.25 24.2083333,7.83333333 L24.2083333,7.625 C24.2083333,7.45833333 24.2083333,7.41666667 24.0833333,7.375 C23.9166667,7.29166667 23.75,7.20833333 23.5833333,7.16666667 C22.0833333,6.625 19.125,6.625 17.75,6.75 C16.2916667,6.875 15.0833333,7.20833333 14.0833333,7.70833333" id="Shape" fill="#494949"></path>
                            <path d="M17.75,16.7916667 C14.375,19.1666667 10.625,19.125 7.25,16.7916667 C6.83333333,16.5 6.5,17 6.75,17.4583333 C7.79166667,19.125 9.83333333,20.6666667 12.5,20.6666667 C15.1666667,20.6666667 17.2083333,19.1666667 18.25,17.4583333 C18.5,17 18.1666667,16.5 17.75,16.7916667" id="Shape" fill="#664E27"></path>
                        </g>
                    </g>
                </g>
                <g id="Emoji" transform="translate(227.000000, 515.000000)">
                    <g id="Oval">
                        <use fill="black" fill-opacity="1" filter="url(#filter-6)" xlink:href="#path-5"></use>
                        <use fill="#FFFFFF" fill-rule="evenodd" xlink:href="#path-5"></use>
                    </g>
                    <g id="emoji-worried" transform="translate(5.000000, 5.000000)" fill-rule="nonzero">
                        <g id="Group">
                            <path d="M0,12.5 C0,19.4166667 5.58333333,25 12.5,25 C19.4166667,25 25,19.4166667 25,12.5 C25,5.58333333 19.4166667,0 12.5,0 C5.58333333,0 0,5.58333333 0,12.5 Z" id="Shape" fill="#FFDD67"></path>
                            <path d="M19.375,5.95833333 C19.375,10.0833333 25,10.0833333 25,5.95833333 C25,2.95833333 22.2083333,0 22.2083333,0 C22.2083333,0 19.375,2.95833333 19.375,5.95833333 Z" id="Shape" fill="#65B1EF"></path>
                            <g transform="translate(5.416667, 12.083333)" id="Oval" fill="#664E27">
                                <ellipse cx="11.875" cy="2.08333333" rx="2.08333333" ry="2.08333333"></ellipse>
                                <ellipse cx="2.29166667" cy="2.08333333" rx="2.08333333" ry="2.08333333"></ellipse>
                            </g>
                            <g transform="translate(4.583333, 7.916667)" id="Shape" fill="#917524">
                                <path d="M5.25,0.375 C3.91666667,1.5 2.125,2 0.375,1.66666667 C0.125,1.625 -0.0833333333,2.5 0.208333333,2.58333333 C2.20833333,2.95833333 4.29166667,2.375 5.83333333,1.08333333 C6.04166667,0.875 5.41666667,0.208333333 5.25,0.375"></path>
                                <path d="M15.4583333,1.625 C13.7083333,1.91666667 11.9166667,1.45833333 10.5833333,0.333333333 C10.4166667,0.166666667 9.75,0.833333333 10,1.04166667 C11.5416667,2.375 13.625,2.91666667 15.625,2.54166667 C15.9166667,2.45833333 15.7083333,1.58333333 15.4583333,1.625"></path>
                            </g>
                            <path d="M15.8333333,20.8333333 L9.16666667,20.8333333 C8.54166667,20.8333333 8.54166667,19.1666667 9.16666667,19.1666667 L15.8333333,19.1666667 C16.4583333,19.1666667 16.4583333,20.8333333 15.8333333,20.8333333" id="Shape" fill="#664E27"></path>
                        </g>
                    </g>
                </g>
            </g>
        </g>
    </g>
</svg>