<?xml version="1.0" encoding="UTF-8"?>
<svg width="298px" height="114px" viewBox="0 0 298 114" version="1.1" xmlns="http://www.w3.org/2000/svg" xmlns:xlink="http://www.w3.org/1999/xlink">
    <!-- Generator: Sketch 42 (36781) - http://www.bohemiancoding.com/sketch -->
    <title>Graphic</title>
    <desc>Created with Sketch.</desc>
    <defs>
        <path d="M60,95 C82.09139,95 100,77.09139 100,55 C100,32.90861 82.09139,15 60,15 C37.90861,15 20,32.90861 20,55 C20,77.09139 37.90861,95 60,95 Z" id="path-1"></path>
        <filter x="-50%" y="-50%" width="200%" height="200%" filterUnits="objectBoundingBox" id="filter-2">
            <feOffset dx="0" dy="2" in="SourceAlpha" result="shadowOffsetOuter1"></feOffset>
            <feGaussianBlur stdDeviation="4" in="shadowOffsetOuter1" result="shadowBlurOuter1"></feGaussianBlur>
            <feColorMatrix values="0 0 0 0 0.403921569   0 0 0 0 0.498039216   0 0 0 0 0.478431373  0 0 0 0.2 0" type="matrix" in="shadowBlurOuter1"></feColorMatrix>
        </filter>
        <path d="M230,94 C252.09139,94 270,76.09139 270,54 C270,31.90861 252.09139,14 230,14 C207.90861,14 190,31.90861 190,54 C190,76.09139 207.90861,94 230,94 Z" id="path-3"></path>
        <filter x="-50%" y="-50%" width="200%" height="200%" filterUnits="objectBoundingBox" id="filter-4">
            <feOffset dx="0" dy="2" in="SourceAlpha" result="shadowOffsetOuter1"></feOffset>
            <feGaussianBlur stdDeviation="4" in="shadowOffsetOuter1" result="shadowBlurOuter1"></feGaussianBlur>
            <feColorMatrix values="0 0 0 0 0.403921569   0 0 0 0 0.498039216   0 0 0 0 0.478431373  0 0 0 0.2 0" type="matrix" in="shadowBlurOuter1"></feColorMatrix>
        </filter>
        <path d="M0.000126863717,7.46271206 L9.56662885,0.0347535013 C11.849697,6.57010802 18.0688965,11.2583519 25.3830941,11.2583519 C29.0249455,11.2583519 32.3953253,10.0960438 35.1435153,8.12214576 L44.4838797,15.6495156 C39.4306693,20.2180133 32.7317879,23.0001914 25.3830941,23.0001914 C14.312458,23.0001914 4.71655317,16.6861159 0.000126863717,7.46271206 Z" id="path-5"></path>
        <path d="M3.23056996,0.03664178 L12.7894391,7.38319624 C12.1120547,9.20257734 11.7418394,11.1714729 11.7418394,13.2268368 C11.7418394,15.2389388 12.0966339,17.1681742 12.7470746,18.9553946 L3.12787524,26.2188717 C1.12836283,22.3232122 0,17.9067961 0,13.2268368 C0,8.46734462 1.16704029,3.98042932 3.23056996,0.03664178 Z" id="path-7"></path>
        <path d="M9.61223551,22.6475875 L0.0533663492,15.3010331 C4.81203473,6.20633612 14.3382459,0 25.3140245,0 C33.2057472,0 40.3480739,3.20854588 45.5076652,8.39229828 L37.2351093,16.7256073 C34.1981465,13.648768 29.978779,11.7418394 25.3140245,11.7418394 C18.1189565,11.7418394 11.9835076,16.2786081 9.61223551,22.6475875 Z" id="path-9"></path>
        <linearGradient x1="100%" y1="100%" x2="0%" y2="100%" id="linearGradient-11">
            <stop stop-color="#62B13F" offset="0%"></stop>
            <stop stop-color="#4285F4" offset="100%"></stop>
        </linearGradient>
        <circle id="path-12" cx="120.5" cy="50.5" r="1.5"></circle>
        <mask id="mask-13" maskContentUnits="userSpaceOnUse" maskUnits="objectBoundingBox" x="-2" y="-2" width="7" height="7">
            <rect x="117" y="47" width="7" height="7" fill="white"></rect>
            <use xlink:href="#path-12" fill="black"></use>
        </mask>
        <circle id="path-14" cx="22" cy="9" r="3"></circle>
        <mask id="mask-15" maskContentUnits="userSpaceOnUse" maskUnits="objectBoundingBox" x="-2" y="-2" width="10" height="10">
            <rect x="17" y="4" width="10" height="10" fill="white"></rect>
            <use xlink:href="#path-14" fill="black"></use>
        </mask>
        <circle id="path-16" cx="283" cy="83" r="2"></circle>
        <mask id="mask-17" maskContentUnits="userSpaceOnUse" maskUnits="objectBoundingBox" x="-2" y="-2" width="8" height="8">
            <rect x="279" y="79" width="8" height="8" fill="white"></rect>
            <use xlink:href="#path-16" fill="black"></use>
        </mask>
    </defs>
    <g id="Page-1" stroke="none" stroke-width="1" fill="none" fill-rule="evenodd">
        <g id="Desktop" transform="translate(-65.000000, -773.000000)">
            <g id="Content" transform="translate(65.000000, 634.000000)">
                <g id="Step-1" transform="translate(0.000000, 139.000000)">
                    <g id="Graphic">
                        <g id="Oval-2">
                            <use fill="black" fill-opacity="1" filter="url(#filter-2)" xlink:href="#path-1"></use>
                            <use fill="#FFFFFF" fill-rule="evenodd" xlink:href="#path-1"></use>
                        </g>
                        <g id="Oval-2">
                            <use fill="black" fill-opacity="1" filter="url(#filter-4)" xlink:href="#path-3"></use>
                            <use fill="#FFFFFF" fill-rule="evenodd" xlink:href="#path-3"></use>
                        </g>
                        <g id="Google" transform="translate(31.000000, 26.000000)">
                            <g id="Group-5" transform="translate(28.663902, 22.585774)" fill="#4285F4">
                                <path d="M18.9302578,27.0440661 C24.0082302,22.4522499 27.4239147,16.0563739 28.1664618,8.86728796 L28.1664618,8.86728796 C28.2670197,7.8937203 28.318554,6.90560566 28.318554,5.90545455 C28.318554,3.88069605 28.1073456,1.90526791 27.7057588,-4.97379915e-14 L7.10542736e-15,-4.97379915e-14 L7.10542736e-15,11.7418394 L15.5318143,11.7418396 C14.3627236,14.8863672 12.2762092,17.5847113 9.59755957,19.5115838 L18.9302578,27.0440661 Z" id="Combined-Shape"></path>
                            </g>
                            <g id="Group-5" transform="translate(3.108134, 33.982265)">
                                <mask id="mask-6" fill="white">
                                    <use xlink:href="#path-5"></use>
                                </mask>
                                <use id="Combined-Shape" fill="#34A853" xlink:href="#path-5"></use>
                            </g>
                            <g id="Group-5" transform="translate(0.000000, 15.264391)">
                                <mask id="mask-8" fill="white">
                                    <use xlink:href="#path-7"></use>
                                </mask>
                                <use id="Combined-Shape" fill="#FBBC05" xlink:href="#path-7"></use>
                            </g>
                            <g id="Group-5" transform="translate(3.177204, 0.000000)">
                                <mask id="mask-10" fill="white">
                                    <use xlink:href="#path-9"></use>
                                </mask>
                                <use id="Combined-Shape" fill="#EA4335" xlink:href="#path-9"></use>
                            </g>
                        </g>
                        <path d="M114,68 C114,68 125.886313,86 145,86 C164.113687,86 176,68 176,68" id="Line" stroke="url(#linearGradient-11)" stroke-width="4.5" stroke-linecap="round" stroke-dasharray="2,10"></path>
                        <path d="M188.201115,6.19853269 L185.777857,5.30898231 L187.137744,3.11066816 C187.700307,2.18926375 187.449725,0.989275969 186.565437,0.370003908 C185.681149,-0.249268153 184.467802,-0.0744784118 183.794261,0.769207967 L182.199206,2.81415136 L180.522352,0.86123042 C179.829277,0.00141328673 178.578731,-0.152778655 177.697559,0.512934382 C176.816387,1.17864742 176.622973,2.42373066 177.260667,3.32538721 L178.702352,5.47257778 L176.309769,6.49504948 C175.283271,6.8908238 174.753858,8.02779441 175.11165,9.06814095 C175.469441,10.1084875 176.586192,10.6793173 177.638982,10.3599925 L180.123588,9.65448703 L180.328082,12.1084191 C180.408487,13.1775141 181.300916,14.003011 182.373026,13.9999917 L182.373026,13.9999917 C183.471229,14.0008706 184.374041,13.1341707 184.417969,12.0368461 L184.509992,9.4602174 L187.015047,10.0737004 C188.065944,10.3225626 189.129195,9.71134475 189.442992,8.67797764 C189.756789,7.64461053 189.212944,6.54537389 188.201115,6.16785853 L188.201115,6.19853269 Z" id="Shape" fill-opacity="0.100000001" fill="#6C727D" fill-rule="nonzero"></path>
                        <path d="M96.667383,104.67996 L98.0272704,102.481646 C98.5898334,101.560242 98.3392512,100.360254 97.4549632,99.740982 C96.5706751,99.12171 95.3573282,99.2964997 94.6837879,100.140186 L93.0887321,102.185129 L91.4118785,100.232209 C90.7188038,99.3723914 89.4682576,99.2181995 88.5870856,99.8839125 C87.7059135,100.549626 87.5124999,101.794709 88.1501938,102.696365 L89.5918789,104.843556 L87.1992951,105.866028 C86.1727971,106.261802 85.6433848,107.398773 86.001176,108.439119 C86.3589671,109.479466 87.4757182,110.050295 88.5285083,109.730971 L91.0131145,109.025465 L91.2176089,111.479397 C91.2980132,112.548492 92.1904423,113.373989 93.2625523,113.37097 C94.3607555,113.371849 95.2635679,112.505149 95.3074957,111.407824 L95.3995181,108.831196 L97.9045738,109.444679 C98.9554705,109.693541 100.018721,109.082323 100.332519,108.048956 C100.646316,107.015589 100.10247,105.916352 99.090641,105.538837 L96.667383,104.67996 Z" id="Shape-Copy-3" fill-opacity="0.100000001" fill="#6C727D" fill-rule="nonzero" transform="translate(93.155352, 106.370978) rotate(100.000000) translate(-93.155352, -106.370978) "></path>
                        <path d="M294.914698,42.3187622 L296.080316,40.4344929 C296.562513,39.6447177 296.347728,38.6161567 295.589767,38.0853521 C294.831806,37.5545475 293.791794,37.7043673 293.214474,38.427527 L291.847283,40.1803356 L290.40998,38.5064034 C289.815916,37.7694173 288.744019,37.6372528 287.988729,38.2078639 C287.233439,38.7784751 287.067656,39.8456893 287.61425,40.6185378 L288.84998,42.4589869 L286.799194,43.3353912 C285.919339,43.6746263 285.465557,44.6491725 285.772235,45.5408981 C286.078913,46.4326238 287.036128,46.9219064 287.93852,46.6481995 L290.068182,46.0434805 L290.243463,48.1468508 C290.312381,49.063218 291.077321,49.7707868 291.996272,49.7681988 C292.937589,49.7689522 293.711428,49.0260665 293.749081,48.0855025 L293.827957,45.8769637 L295.975148,46.4028063 C296.875916,46.6161167 297.787274,46.0922157 298.056243,45.2064725 C298.325212,44.3207292 297.859059,43.3785264 296.991777,43.0549418 L294.914698,42.3187622 Z" id="Shape-Copy-5" fill-opacity="0.100000001" fill="#6C727D" fill-rule="nonzero" transform="translate(291.904386, 43.768206) rotate(160.000000) translate(-291.904386, -43.768206) "></path>
                        <circle id="Oval-Copy" fill-opacity="0.200000003" fill="#6C727D" fill-rule="nonzero" cx="160" cy="24" r="4"></circle>
                        <circle id="Oval-Copy-4" fill-opacity="0.200000003" fill="#6C727D" fill-rule="nonzero" cx="4" cy="89" r="4"></circle>
                        <use id="Oval-Copy-3" stroke-opacity="0.2" stroke="#6C727D" mask="url(#mask-13)" stroke-width="4" fill-rule="nonzero" xlink:href="#path-12"></use>
                        <use id="Oval-Copy" stroke-opacity="0.202870245" stroke="#6C727D" mask="url(#mask-15)" stroke-width="4" fill-rule="nonzero" xlink:href="#path-14"></use>
                        <use id="Oval-Copy" stroke-opacity="0.202870245" stroke="#6C727D" mask="url(#mask-17)" stroke-width="4" fill-rule="nonzero" xlink:href="#path-16"></use>
                        <rect id="Rectangle-path-Copy-2" fill-opacity="0.200000003" fill="#6C727D" fill-rule="nonzero" transform="translate(186.663132, 93.663437) rotate(14.712524) translate(-186.663132, -93.663437) " x="183.663559" y="90.6634366" width="5.999147" height="6"></rect>
                        <g id="icon-quicksprout-symbol" transform="translate(200.000000, 24.000000)" fill-rule="nonzero">
                            <g id="Layer_1">
                                <circle id="Oval" fill="#62B13F" cx="30" cy="30" r="30"></circle>
                                <path d="M41.9560216,28.8824751 C41.9560216,21.6814784 36.131686,15.8571429 28.9306894,15.8571429 C21.7296927,15.8571429 15.9053571,21.6814784 15.9053571,28.8824751 C15.9053571,30.3650332 16.1171512,31.7416944 16.6466362,33.2242525 L16.6466362,33.2242525 C16.6466362,33.3301495 18.5527824,40.1075581 28.7188953,44.8729236 C31.1545266,46.0377907 33.8019518,46.9908638 36.5552741,47.7321429 C37.1906561,46.8849668 38.0378322,46.1436877 38.8850083,45.2965116 C39.7321844,44.4493355 40.5793605,43.7080565 41.3206395,43.0726744 C40.0498754,42.9667774 37.0847591,42.5431894 33.5901578,41.1665282 C38.5673173,39.048588 41.9560216,34.2832226 41.9560216,28.8824751 M21.8355897,29.3060631 C21.8355897,25.3878738 25.0125,22.2109635 28.9306894,22.2109635 C32.8488787,22.2109635 36.025789,25.3878738 36.025789,29.3060631 C36.025789,33.2242525 32.8488787,36.4011628 28.9306894,36.4011628 C25.0125,36.5070598 21.8355897,33.2242525 21.8355897,29.3060631" id="Shape" fill="#FFFFFF"></path>
                            </g>
                        </g>
                        <path d="M268.946383,9.99641375 C268.446383,9.12141375 267.446383,8.55891375 266.258883,8.55891375 C264.633883,8.55891375 263.321383,9.68391375 263.321383,11.0589137 C263.321383,13.5589137 268.946383,18.5589137 268.946383,18.5589137 C268.946383,18.5589137 274.571383,13.5589137 274.571383,11.0589137 C274.571383,9.68391375 273.258883,8.55891375 271.633883,8.55891375 C270.446383,8.55891375 269.446383,9.12141375 268.946383,9.99641375 Z" id="Shape" fill-opacity="0.300000012" fill="#6C727D" fill-rule="nonzero" transform="translate(268.946383, 13.558914) rotate(19.000000) translate(-268.946383, -13.558914) "></path>
                        <path d="M104.8188,24 C104.81216,24.226 104.67976,25.07296 103.23488,26.47472 C101.84432,27.82376 101.19512,27.98592 101,28 C101.19512,28.01424 101.84432,28.17632 103.23488,29.52528 C104.67976,30.92712 104.81216,31.77416 104.8188,32 C104.82544,31.77416 104.95792,30.92712 106.40264,29.52528 C107.79336,28.17632 108.44248,28.01424 108.63768,28 C108.44256,27.98592 107.79336,27.82376 106.40264,26.47472 C104.958,25.07296 104.82552,24.226 104.8188,24 Z" id="Shape" fill-opacity="0.200000018" fill="#6C727D" fill-rule="nonzero"></path>
                        <path d="M17.8188,89 C17.81216,89.226 17.67976,90.07296 16.23488,91.47472 C14.84432,92.82376 14.19512,92.98592 14,93 C14.19512,93.01424 14.84432,93.17632 16.23488,94.52528 C17.67976,95.92712 17.81216,96.77416 17.8188,97 C17.82544,96.77416 17.95792,95.92712 19.40264,94.52528 C20.79336,93.17632 21.44248,93.01424 21.63768,93 C21.44256,92.98592 20.79336,92.82376 19.40264,91.47472 C17.958,90.07296 17.82552,89.226 17.8188,89 Z" id="Shape-Copy-4" fill-opacity="0.200000018" fill="#6C727D" fill-rule="nonzero"></path>
                        <path d="M236.8188,103 C236.81216,103.226 236.67976,104.07296 235.23488,105.47472 C233.84432,106.82376 233.19512,106.98592 233,107 C233.19512,107.01424 233.84432,107.17632 235.23488,108.52528 C236.67976,109.92712 236.81216,110.77416 236.8188,111 C236.82544,110.77416 236.95792,109.92712 238.40264,108.52528 C239.79336,107.17632 240.44248,107.01424 240.63768,107 C240.44256,106.98592 239.79336,106.82376 238.40264,105.47472 C236.958,104.07296 236.82552,103.226 236.8188,103 Z" id="Shape-Copy-6" fill-opacity="0.200000018" fill="#6C727D" fill-rule="nonzero" transform="translate(236.818840, 107.000000) rotate(-52.000000) translate(-236.818840, -107.000000) "></path>
                    </g>
                </g>
            </g>
        </g>
    </g>
</svg>