<?xml version="1.0" encoding="UTF-8"?>
<svg width="50px" height="50px" viewBox="0 0 50 50" version="1.1" xmlns="http://www.w3.org/2000/svg" xmlns:xlink="http://www.w3.org/1999/xlink">
    <!-- Generator: Sketch 42 (36781) - http://www.bohemiancoding.com/sketch -->
    <title>Group 8</title>
    <desc>Created with Sketch.</desc>
    <defs></defs>
    <g id="Page-1" stroke="none" stroke-width="1" fill="none" fill-rule="evenodd">
        <g id="Desktop" transform="translate(-65.000000, -1518.000000)" fill="#6EC24D">
            <g id="Group-8" transform="translate(65.000000, 1518.000000)">
                <circle id="Oval-4" fill-opacity="0.100000001" cx="25" cy="25" r="25"></circle>
                <g id="noun-99326-cc" transform="translate(11.000000, 9.000000)" fill-rule="nonzero">
                    <g id="Group">
                        <g id="Shape">
                            <path d="M12.287,7.55433333 C8.86333333,8.676 8.406,12.7596667 8.08566667,15.6233333 L8.05566667,15.895 L7.98633333,16.5473333 L7.985,16.5473333 C7.85833333,17.7486667 7.705,19.1906667 7.36966667,20.172 C7.189,20.6986667 7.469,21.271 7.99233333,21.452 C8.517,21.6316667 9.08733333,21.351 9.26766667,20.8256667 C9.67433333,19.642 9.83966667,18.0703333 9.97766667,16.7603333 L9.97766667,16.7556667 C9.99433333,16.5983333 10.014,16.4233333 10.0486667,16.1153333 L10.0786667,15.8436667 L10.085,15.7896667 C10.3226667,13.67 10.6613333,10.7636667 12.3623333,9.72066667 C12.5293333,9.61633333 12.7113333,9.532 12.907,9.467 C13.4336667,9.29633333 13.7206667,8.72866667 13.551,8.20033333 C13.3793333,7.672 12.8133333,7.38233333 12.287,7.55433333 Z"></path>
                            <path d="M27.04,23.3406667 L25.2183333,21.5143333 C24.243,20.5356667 23.9936667,18.3243333 23.7166667,15.883 C23.1226667,10.637 22.423,4.479 14.6713333,3.626 L14.6713333,1.00833333 C14.6716667,0.451333333 14.2216667,0 13.6666667,0 C13.113,0 12.6633333,0.451333333 12.6633333,1.00833333 L12.6633333,3.626 C4.90966667,4.47933333 4.21066667,10.6386667 3.61666667,15.883 C3.34133333,18.324 3.09,20.5356667 2.115,21.5143333 L0.311666667,23.3243333 C0.120333333,23.507 0,23.7666667 0,24.0533333 C0,24.6103333 0.45,25.0616667 1.005,25.0616667 L8.477,25.0616667 C8.73566667,26.3723333 9.32533333,27.5283333 10.1303333,28.3876667 C11.0716667,29.3933333 12.307,30 13.6666667,30 C15.0263333,30 16.2616667,29.3933333 17.2046667,28.3876667 C18.008,27.5286667 18.5976667,26.3723333 18.858,25.0616667 L26.33,25.0616667 C26.5856667,25.0616667 26.8426667,24.962 27.04,24.7656667 C27.4313333,24.372 27.4313333,23.735 27.04,23.3406667 Z M15.7453333,27.0093333 C15.1756667,27.6176667 14.447,27.9846667 13.6666667,27.9846667 C12.8863333,27.9846667 12.1593333,27.6176667 11.5893333,27.0093333 C11.1123333,26.5006667 10.7423333,25.8303333 10.53,25.0616667 L13.6666667,25.0616667 L16.8033333,25.0616667 C16.591,25.8303333 16.2223333,26.5006667 15.7453333,27.0093333 Z M13.6666667,23.045 L3.42833333,23.045 L3.535,22.9396667 C5.003,21.466 5.292,18.918 5.60933333,16.1036667 C6.13733333,11.4436667 6.76166667,5.939 13.6563333,5.56033333 L13.6666667,5.56033333 L13.677,5.56033333 C20.5716667,5.93933333 21.1973333,11.4436667 21.7236667,16.1036667 C22.0426667,18.9176667 22.3313333,21.4676667 23.7983333,22.9396667 L23.905,23.045 L13.6666667,23.045 Z"></path>
                        </g>
                    </g>
                </g>
            </g>
        </g>
    </g>
</svg>