<?xml version="1.0" encoding="UTF-8"?>
<svg width="50px" height="50px" viewBox="0 0 50 50" version="1.1" xmlns="http://www.w3.org/2000/svg" xmlns:xlink="http://www.w3.org/1999/xlink">
    <!-- Generator: Sketch 42 (36781) - http://www.bohemiancoding.com/sketch -->
    <title>Group 9</title>
    <desc>Created with Sketch.</desc>
    <defs></defs>
    <g id="Page-1" stroke="none" stroke-width="1" fill="none" fill-rule="evenodd">
        <g id="Desktop" transform="translate(-65.000000, -1672.000000)" fill="#6EC24D">
            <g id="Group-9" transform="translate(65.000000, 1672.000000)">
                <circle id="Oval-4" fill-opacity="0.100000001" cx="25" cy="25" r="25"></circle>
                <g id="noun_70892_cc" transform="translate(11.000000, 13.000000)" stroke-width="0.75" stroke="#6EC24D" fill-rule="nonzero">
                    <g id="Group">
                        <path d="M23.3777778,23.1333333 L1.24444444,23.1333333 L1.24444444,1.62222222 C1.24444444,1.27875556 0.965688889,1 0.622222222,1 C0.278755556,1 0,1.27875556 0,1.62222222 L0,23.7555556 C0,24.0990222 0.278755556,24.3777778 0.622222222,24.3777778 L23.3777778,24.3777778 C23.7212444,24.3777778 24,24.0990222 24,23.7555556 C24,23.4120889 23.7212444,23.1333333 23.3777778,23.1333333 Z" id="Shape"></path>
                        <path d="M28.4241754,1.92475789 C28.4241754,1.08506901 27.7434643,0.404046784 26.9034643,0.404046784 C26.0634643,0.404046784 25.3827532,1.08475789 25.3827532,1.92475789 C25.3827532,2.33106901 25.544531,2.69818012 25.8039977,2.97102456 L22.8736421,8.39742456 C22.8708421,8.39742456 22.8680421,8.39649123 22.8652421,8.39649123 C22.6067088,8.39649123 22.3671532,8.46711345 22.1540421,8.58066901 L20.0503088,6.78306901 C20.0674199,6.69160234 20.0786199,6.59795789 20.0786199,6.50120234 C20.0786199,5.66151345 19.3979088,4.98049123 18.5579088,4.98049123 C17.7179088,4.98049123 17.0371977,5.66120234 17.0371977,6.50120234 C17.0371977,6.72862456 17.0903977,6.94204678 17.1799977,7.13586901 L14.3152865,12.4409357 C14.2935088,12.4400023 14.2729754,12.4344023 14.2508865,12.4344023 C13.8772421,12.4344023 13.5396865,12.5744023 13.2752421,12.7977801 L11.1279532,10.9628468 C11.1674643,10.8275135 11.1951532,10.6872023 11.1951532,10.5391135 C11.1951532,9.69942456 10.5144421,9.01840234 9.67444211,9.01840234 C8.83444211,9.01840234 8.15373099,9.69911345 8.15373099,10.5391135 C8.15373099,10.9105801 8.29217544,11.246269 8.51306433,11.5100912 L5.84093099,17.0313801 C5.77341988,17.0220468 5.70621988,17.0108468 5.63621988,17.0108468 C4.79621988,17.0108468 4.11550877,17.6915579 4.11550877,18.5315579 C4.11550877,19.3715579 4.79621988,20.052269 5.63621988,20.052269 C6.47590877,20.052269 7.15693099,19.3715579 7.15693099,18.5315579 C7.15693099,18.2213801 7.06297544,17.9332912 6.90337544,17.6928023 L9.63150877,12.0557801 C9.64613099,12.0560912 9.65950877,12.0601357 9.67413099,12.0601357 C9.90653099,12.0601357 10.1239977,12.0038246 10.320931,11.9108023 L12.7314199,13.970669 C12.7398199,14.8032023 13.4158643,15.4761357 14.2505754,15.4761357 C15.0902643,15.4761357 15.7712865,14.7954246 15.7712865,13.9554246 C15.7712865,13.5923579 15.6387532,13.2635135 15.4262643,13.001869 L18.1491088,7.95938012 C18.2797754,7.99609123 18.4151088,8.02191345 18.5575977,8.02191345 C18.8407088,8.02191345 19.1026643,7.93946901 19.3297754,7.80475789 L21.389331,9.56471345 C21.3622643,9.67826901 21.3442199,9.79524678 21.3442199,9.91720234 C21.3442199,10.7568912 22.024931,11.4379135 22.864931,11.4379135 C23.704931,11.4379135 24.3856421,10.7572023 24.3856421,9.91720234 C24.3856421,9.53391345 24.2391088,9.18795789 24.0051532,8.92071345 L26.9650643,3.43955789 C27.7758199,3.40564678 28.4241754,2.74329123 28.4241754,1.92475789 Z" id="Shape"></path>
                    </g>
                </g>
            </g>
        </g>
    </g>
</svg>